<?xml version="1.0" encoding="UTF-8"?>
<svg xmlns="http://www.w3.org/2000/svg" width="589" height="410" viewBox="0 0 589 410" fill="none">
  <path fill-rule="evenodd" clip-rule="evenodd" d="M432.268 90.5962L430.804 91.7208L429.89 90.5314L431.354 89.4067L432.268 90.5962ZM427.877 93.9698L424.95 96.2188L424.036 95.0293L426.963 92.7804L427.877 93.9698ZM422.023 98.4677L419.096 100.717L418.182 99.5273L421.109 97.2783L422.023 98.4677ZM416.169 102.966L413.242 105.215L412.328 104.025L415.255 101.776L416.169 102.966ZM410.315 107.464L407.388 109.713L406.474 108.523L409.401 106.274L410.315 107.464ZM404.461 111.962L401.534 114.211L400.62 113.021L403.547 110.772L404.461 111.962ZM398.606 116.46L395.679 118.709L394.766 117.519L397.693 115.27L398.606 116.46ZM392.752 120.958L389.825 123.207L388.911 122.017L391.838 119.768L392.752 120.958ZM386.898 125.456L383.971 127.704L383.057 126.515L385.984 124.266L386.898 125.456ZM381.044 129.953L378.117 132.202L377.203 131.013L380.13 128.764L381.044 129.953ZM375.19 134.451L372.263 136.7L371.349 135.511L374.276 133.262L375.19 134.451ZM369.336 138.949L366.409 141.198L365.495 140.009L368.422 137.76L369.336 138.949ZM363.482 143.447L360.555 145.696L359.641 144.507L362.568 142.258L363.482 143.447ZM357.628 147.945L354.701 150.194L353.787 149.005L356.714 146.756L357.628 147.945ZM351.774 152.443L348.847 154.692L347.933 153.503L350.86 151.254L351.774 152.443ZM345.919 156.941L342.992 159.19L342.079 158.001L345.006 155.752L345.919 156.941ZM340.065 161.439L337.138 163.688L336.224 162.499L339.151 160.25L340.065 161.439ZM334.211 165.937L331.284 168.186L330.37 166.997L333.297 164.748L334.211 165.937ZM328.357 170.435L325.43 172.684L324.516 171.495L327.443 169.246L328.357 170.435ZM322.503 174.933L319.576 177.182L318.662 175.993L321.589 173.744L322.503 174.933ZM316.649 179.431L313.722 181.68L312.808 180.491L315.735 178.242L316.649 179.431ZM310.795 183.929L307.868 186.178L306.954 184.989L309.881 182.74L310.795 183.929ZM304.941 188.427L302.014 190.676L301.1 189.487L304.027 187.238L304.941 188.427ZM299.086 192.925L296.159 195.174L295.245 193.985L298.173 191.736L299.086 192.925ZM293.232 197.423L290.305 199.672L289.391 198.483L292.318 196.234L293.232 197.423ZM287.378 201.921L284.451 204.17L283.537 202.981L286.464 200.732L287.378 201.921ZM281.524 206.419L278.597 208.668L277.683 207.479L280.61 205.23L281.524 206.419ZM275.67 210.917L272.743 213.166L271.829 211.976L274.756 209.728L275.67 210.917ZM269.816 215.415L266.889 217.664L265.975 216.474L268.902 214.225L269.816 215.415ZM263.962 219.913L261.035 222.162L260.121 220.972L263.048 218.723L263.962 219.913ZM258.107 224.411L255.18 226.66L254.267 225.47L257.194 223.221L258.107 224.411ZM252.253 228.909L249.326 231.158L248.412 229.968L251.339 227.719L252.253 228.909ZM246.399 233.407L243.472 235.656L242.558 234.466L245.485 232.217L246.399 233.407ZM240.545 237.905L237.618 240.154L236.704 238.964L239.631 236.715L240.545 237.905ZM234.691 242.403L231.764 244.652L230.85 243.462L233.777 241.213L234.691 242.403ZM228.837 246.901L225.91 249.15L224.996 247.96L227.923 245.711L228.837 246.901ZM222.983 251.399L220.056 253.648L219.142 252.458L222.069 250.209L222.983 251.399ZM217.129 255.897L214.201 258.146L213.288 256.956L216.215 254.707L217.129 255.897ZM211.274 260.395L208.347 262.644L207.433 261.454L210.36 259.205L211.274 260.395ZM205.42 264.893L202.493 267.142L201.579 265.952L204.506 263.703L205.42 264.893ZM199.566 269.391L196.639 271.64L195.725 270.45L198.652 268.201L199.566 269.391ZM193.712 273.889L190.785 276.138L189.871 274.948L192.798 272.699L193.712 273.889ZM187.858 278.387L184.931 280.636L184.017 279.446L186.944 277.197L187.858 278.387ZM182.004 282.885L179.077 285.134L178.163 283.944L181.09 281.695L182.004 282.885ZM176.15 287.383L173.222 289.632L172.309 288.442L175.236 286.193L176.15 287.383ZM170.295 291.881L167.368 294.13L166.454 292.94L169.382 290.691L170.295 291.881ZM164.441 296.379L161.514 298.628L160.6 297.438L163.527 295.189L164.441 296.379ZM158.587 300.877L155.66 303.126L154.746 301.936L157.673 299.687L158.587 300.877ZM152.733 305.375L149.806 307.624L148.892 306.434L151.819 304.185L152.733 305.375ZM146.879 309.872L143.952 312.121L143.038 310.932L145.965 308.683L146.879 309.872ZM141.025 314.37L138.098 316.619L137.184 315.43L140.111 313.181L141.025 314.37ZM135.171 318.868L132.244 321.117L131.33 319.928L134.257 317.679L135.171 318.868ZM129.316 323.366L127.853 324.491L126.939 323.301L128.403 322.177L129.316 323.366Z" fill="#7D92EF"></path>
  <path fill-rule="evenodd" clip-rule="evenodd" d="M287.639 82.2545C288.259 82.2515 288.879 82.25 289.5 82.25C290.121 82.25 290.741 82.2515 291.361 82.2545L291.354 83.7545C290.737 83.7515 290.119 83.75 289.5 83.75C288.881 83.75 288.264 83.7515 287.646 83.7545L287.639 82.2545ZM280.231 82.3626C281.46 82.3327 282.693 82.3087 283.927 82.2906L283.949 83.7905C282.719 83.8084 281.492 83.8323 280.267 83.8621L280.231 82.3626ZM295.073 82.2906C296.307 82.3087 297.54 82.3327 298.77 82.3626L298.733 83.8621C297.508 83.8323 296.281 83.8084 295.051 83.7905L295.073 82.2906ZM272.821 82.6156C274.056 82.5613 275.293 82.513 276.532 82.4707L276.584 83.9698C275.349 84.0119 274.117 84.0601 272.887 84.1142L272.821 82.6156ZM302.468 82.4707C303.707 82.513 304.944 82.5613 306.179 82.6156L306.113 84.1142C304.883 84.0601 303.651 84.0119 302.416 83.9698L302.468 82.4707ZM265.437 83.0137C266.664 82.9353 267.894 82.8629 269.127 82.7965L269.207 84.2943C267.979 84.3605 266.754 84.4326 265.532 84.5106L265.437 83.0137ZM309.873 82.7965C311.106 82.8629 312.336 82.9353 313.563 83.0137L313.468 84.5106C312.246 84.4326 311.021 84.3605 309.793 84.2943L309.873 82.7965ZM258.041 83.5603C259.267 83.4572 260.497 83.3601 261.729 83.269L261.84 84.7649C260.612 84.8557 259.388 84.9524 258.166 85.055L258.041 83.5603ZM317.271 83.269C318.503 83.3601 319.733 83.4572 320.959 83.5603L320.834 85.055C319.612 84.9524 318.388 84.8557 317.16 84.7649L317.271 83.269ZM250.662 84.2555C251.892 84.127 253.125 84.0045 254.361 83.8881L254.502 85.3815C253.27 85.4974 252.042 85.6194 250.818 85.7474L250.662 84.2555ZM324.639 83.8881C325.875 84.0045 327.109 84.127 328.338 84.2555L328.182 85.7474C326.958 85.6194 325.73 85.4974 324.498 85.3815L324.639 83.8881ZM243.316 85.099C244.535 84.9463 245.757 84.7996 246.983 84.6588L247.154 86.1491C245.933 86.2892 244.716 86.4354 243.502 86.5874L243.316 85.099ZM332.017 84.6589C333.243 84.7996 334.465 84.9464 335.684 85.099L335.498 86.5874C334.284 86.4354 333.067 86.2892 331.846 86.1491L332.017 84.6589ZM235.964 86.0978C237.182 85.9193 238.404 85.7468 239.629 85.5804L239.831 87.0667C238.611 87.2325 237.394 87.4042 236.182 87.5819L235.964 86.0978ZM339.371 85.5804C340.597 85.7468 341.818 85.9193 343.036 86.0978L342.818 87.5819C341.606 87.4042 340.389 87.2325 339.169 87.0667L339.371 85.5804ZM228.642 87.2499C229.861 87.0447 231.085 86.8456 232.312 86.6525L232.546 88.1342C231.323 88.3265 230.105 88.5248 228.891 88.7291L228.642 87.2499ZM346.688 86.6525C347.915 86.8456 349.139 87.0447 350.358 87.2499L350.109 88.7291C348.895 88.5248 347.677 88.3265 346.455 88.1343L346.688 86.6525ZM221.362 88.5554C222.569 88.3254 223.781 88.1014 224.996 87.8834L225.261 89.3599C224.051 89.5769 222.845 89.7999 221.643 90.0289L221.362 88.5554ZM354.004 87.8834C355.219 88.1014 356.431 88.3254 357.638 88.5554L357.357 90.0289C356.155 89.7999 354.949 89.5769 353.739 89.3599L354.004 87.8834ZM214.092 90.0232C215.295 89.7665 216.502 89.5159 217.714 89.2712L218.01 90.7415C216.804 90.9851 215.602 91.2347 214.405 91.4902L214.092 90.0232ZM361.287 89.2712C362.498 89.5159 363.705 89.7666 364.908 90.0232L364.595 91.4902C363.398 91.2347 362.196 90.9851 360.99 90.7415L361.287 89.2712ZM206.857 91.6525C208.059 91.3675 209.266 91.0885 210.478 90.8157L210.808 92.279C209.601 92.5507 208.4 92.8284 207.203 93.1121L206.857 91.6525ZM368.522 90.8157C369.734 91.0886 370.941 91.3675 372.143 91.6525L371.797 93.1121C370.6 92.8284 369.399 92.5507 368.192 92.279L368.522 90.8157ZM199.675 93.4425C200.867 93.1308 202.064 92.8252 203.266 92.5256L203.629 93.9811C202.432 94.2793 201.241 94.5835 200.055 94.8937L199.675 93.4425ZM375.734 92.5256C376.936 92.8252 378.133 93.1308 379.325 93.4425L378.945 94.8937C377.759 94.5835 376.568 94.2793 375.371 93.9811L375.734 92.5256ZM192.534 95.4003C193.713 95.0619 194.898 94.7295 196.088 94.4032L196.484 95.8499C195.3 96.1746 194.121 96.5054 192.947 96.8421L192.534 95.4003ZM382.912 94.4032C384.103 94.7296 385.287 95.0619 386.467 95.4003L386.053 96.8421C384.879 96.5054 383.7 96.1746 382.516 95.8499L382.912 94.4032ZM185.423 97.534C186.599 97.1654 187.781 96.8028 188.969 96.4463L189.4 97.883C188.218 98.2377 187.042 98.5985 185.872 98.9654L185.423 97.534ZM390.031 96.4463C391.219 96.8028 392.401 97.1654 393.577 97.5341L393.128 98.9654C391.958 98.5986 390.782 98.2377 389.6 97.883L390.031 96.4463ZM178.379 99.8389C179.551 99.4391 180.729 99.0456 181.913 98.6582L182.379 100.084C181.201 100.469 180.029 100.861 178.864 101.258L178.379 99.8389ZM397.087 98.6582C398.271 99.0456 399.449 99.4392 400.621 99.8389L400.136 101.259C398.971 100.861 397.799 100.469 396.621 100.084L397.087 98.6582ZM171.408 102.318C172.559 101.892 173.717 101.471 174.882 101.057L175.385 102.47C174.226 102.882 173.074 103.301 171.929 103.725L171.408 102.318ZM404.118 101.057C405.283 101.471 406.441 101.892 407.592 102.318L407.071 103.725C405.926 103.301 404.774 102.882 403.615 102.47L404.118 101.057ZM164.488 104.986C165.627 104.529 166.773 104.078 167.927 103.634L168.466 105.033C167.319 105.476 166.179 105.924 165.047 106.378L164.488 104.986ZM411.073 103.634C412.227 104.078 413.373 104.529 414.512 104.986L413.953 106.378C412.821 105.924 411.681 105.476 410.534 105.033L411.073 103.634ZM157.637 107.846C158.768 107.355 159.906 106.87 161.053 106.392L161.63 107.776C160.491 108.252 159.358 108.734 158.234 109.222L157.637 107.846ZM417.947 106.392C419.094 106.87 420.232 107.355 421.363 107.846L420.766 109.222C419.642 108.734 418.509 108.252 417.37 107.776L417.947 106.392ZM150.878 110.895C152 110.369 153.129 109.85 154.267 109.337L154.884 110.704C153.753 111.214 152.63 111.731 151.515 112.253L150.878 110.895ZM424.733 109.337C425.871 109.85 427.001 110.37 428.122 110.895L427.485 112.253C426.37 111.731 425.247 111.214 424.116 110.704L424.733 109.337ZM144.22 114.141C145.318 113.585 146.424 113.035 147.539 112.492L148.196 113.84C147.088 114.38 145.989 114.927 144.898 115.479L144.22 114.141ZM431.461 112.492C432.576 113.035 433.682 113.585 434.78 114.141L434.102 115.479C433.011 114.927 431.912 114.38 430.804 113.84L431.461 112.492ZM137.669 117.59C138.743 117.003 139.825 116.422 140.917 115.847L141.616 117.174C140.531 117.745 139.456 118.323 138.389 118.906L137.669 117.59ZM438.083 115.847C439.175 116.422 440.257 117.003 441.331 117.59L440.611 118.906C439.545 118.323 438.469 117.745 437.384 117.174L438.083 115.847ZM131.21 121.265C132.267 120.64 133.334 120.021 134.411 119.408L135.153 120.712C134.083 121.32 133.024 121.935 131.974 122.556L131.21 121.265ZM444.589 119.408C445.666 120.021 446.733 120.64 447.79 121.265L447.026 122.556C445.977 121.935 444.917 121.32 443.847 120.712L444.589 119.408ZM124.886 125.159C125.924 124.494 126.973 123.835 128.033 123.182L128.819 124.46C127.767 125.108 126.726 125.762 125.695 126.422L124.886 125.159ZM450.967 123.182C452.027 123.835 453.076 124.494 454.114 125.159L453.305 126.422C452.274 125.762 451.233 125.108 450.181 124.46L450.967 123.182ZM118.711 129.277C119.728 128.571 120.756 127.872 121.795 127.178L122.628 128.426C121.596 129.114 120.576 129.809 119.567 130.509L118.711 129.277ZM457.205 127.178C458.244 127.872 459.272 128.571 460.289 129.278L459.433 130.509C458.424 129.809 457.404 129.114 456.372 128.426L457.205 127.178ZM112.703 133.631C113.689 132.886 114.687 132.147 115.698 131.415L116.578 132.63C115.575 133.356 114.585 134.089 113.607 134.827L112.703 133.631ZM463.302 131.415C464.313 132.147 465.311 132.886 466.297 133.631L465.393 134.827C464.415 134.089 463.425 133.356 462.422 132.63L463.302 131.415ZM106.879 138.227C107.829 137.444 108.792 136.667 109.769 135.896L110.698 137.074C109.73 137.837 108.775 138.608 107.833 139.384L106.879 138.227ZM469.231 135.896C470.208 136.667 471.171 137.444 472.121 138.227L471.167 139.384C470.225 138.608 469.27 137.838 468.302 137.074L469.231 135.896ZM101.262 143.076C102.173 142.252 103.098 141.435 104.037 140.624L105.017 141.76C104.087 142.563 103.17 143.372 102.268 144.188L101.262 143.076ZM474.963 140.624C475.902 141.435 476.827 142.252 477.738 143.076L476.732 144.188C475.83 143.373 474.913 142.563 473.983 141.76L474.963 140.624ZM95.8784 148.185C96.7462 147.32 97.6294 146.461 98.5278 145.608L99.5603 146.696C98.6708 147.54 97.7965 148.391 96.9375 149.247L95.8784 148.185ZM480.472 145.608C481.371 146.461 482.254 147.32 483.122 148.185L482.062 149.247C481.204 148.391 480.329 147.54 479.44 146.696L480.472 145.608ZM90.7552 153.566C91.5763 152.656 92.4139 151.753 93.2679 150.856L94.3542 151.891C93.5093 152.778 92.6807 153.672 91.8687 154.571L90.7552 153.566ZM485.732 150.856C486.586 151.753 487.424 152.656 488.245 153.566L487.131 154.571C486.319 153.672 485.491 152.778 484.646 151.891L485.732 150.856ZM85.9279 159.225C86.6975 158.268 87.4849 157.318 88.2899 156.375L89.431 157.348C88.6352 158.281 87.8569 159.22 87.0965 160.165L85.9279 159.225ZM490.71 156.375C491.515 157.318 492.303 158.268 493.072 159.225L491.904 160.165C491.143 159.22 490.365 158.281 489.569 157.348L490.71 156.375ZM81.4409 165.158C82.1517 164.155 82.8817 163.159 83.6307 162.168L84.827 163.073C84.0873 164.051 83.3664 165.035 82.6647 166.026L81.4409 165.158ZM495.369 162.168C496.118 163.159 496.848 164.155 497.559 165.158L496.335 166.026C495.634 165.035 494.913 164.051 494.173 163.073L495.369 162.168ZM77.3376 171.366C77.9818 170.317 78.6466 169.274 79.3317 168.238L80.583 169.065C79.9069 170.088 79.2511 171.116 78.6157 172.151L77.3376 171.366ZM499.668 168.238C500.353 169.274 501.018 170.317 501.662 171.366L500.384 172.151C499.749 171.116 499.093 170.088 498.417 169.065L499.668 168.238ZM73.6652 177.84C74.2346 176.747 74.8259 175.66 75.439 174.58L76.7437 175.32C76.1393 176.385 75.5565 177.456 74.9955 178.533L73.6652 177.84ZM503.561 174.58C504.174 175.661 504.765 176.747 505.335 177.84L504.005 178.533C503.444 177.456 502.861 176.385 502.256 175.32L503.561 174.58ZM70.4733 184.568C70.9594 183.434 71.469 182.305 72.0016 181.183L73.3567 181.826C72.8322 182.931 72.3305 184.042 71.852 185.159L70.4733 184.568ZM506.998 181.183C507.531 182.305 508.041 183.434 508.527 184.568L507.148 185.159C506.669 184.042 506.168 182.931 505.643 181.826L506.998 181.183ZM67.8111 191.528C68.206 190.356 68.6257 189.189 69.0698 188.029L70.4707 188.565C70.0338 189.707 69.621 190.854 69.2326 192.007L67.8111 191.528ZM509.93 188.029C510.374 189.19 510.794 190.356 511.189 191.528L509.767 192.007C509.379 190.854 508.966 189.707 508.529 188.565L509.93 188.029ZM65.7262 198.685C66.0225 197.481 66.3447 196.282 66.6924 195.089L68.1325 195.509C67.7906 196.682 67.4739 197.86 67.1827 199.044L65.7262 198.685ZM512.308 195.089C512.655 196.282 512.978 197.481 513.274 198.685L511.817 199.044C511.526 197.86 511.209 196.682 510.868 195.509L512.308 195.089ZM64.2586 205.994C64.45 204.767 64.6682 203.543 64.9129 202.325L66.3835 202.621C66.1431 203.818 65.9287 205.019 65.7407 206.225L64.2586 205.994ZM514.087 202.325C514.332 203.543 514.55 204.767 514.741 205.995L513.259 206.226C513.071 205.019 512.857 203.818 512.616 202.621L514.087 202.325ZM63.4358 213.403C63.5184 212.161 63.6284 210.923 63.7654 209.69L65.2563 209.856C65.1217 211.067 65.0136 212.283 64.9325 213.503L63.4358 213.403ZM515.235 209.69C515.372 210.923 515.482 212.161 515.564 213.404L514.068 213.503C513.986 212.283 513.878 211.067 513.744 209.856L515.235 209.69ZM63.25 219C63.25 218.375 63.2569 217.751 63.2707 217.128L64.7704 217.162C64.7568 217.773 64.75 218.386 64.75 219C64.75 219.614 64.7568 220.227 64.7704 220.838L63.2707 220.872C63.2569 220.249 63.25 219.625 63.25 219ZM515.729 217.128C515.743 217.751 515.75 218.375 515.75 219C515.75 219.625 515.743 220.249 515.729 220.872L514.23 220.838C514.243 220.227 514.25 219.614 514.25 219C514.25 218.386 514.243 217.773 514.23 217.162L515.729 217.128ZM63.7654 228.31C63.6284 227.077 63.5184 225.839 63.4358 224.596L64.9325 224.497C65.0136 225.717 65.1217 226.933 65.2562 228.144L63.7654 228.31ZM515.564 224.597C515.482 225.839 515.372 227.077 515.235 228.31L513.744 228.144C513.878 226.933 513.986 225.717 514.068 224.497L515.564 224.597ZM64.9129 235.675C64.6682 234.457 64.45 233.233 64.2586 232.005L65.7407 231.774C65.9287 232.981 66.1431 234.182 66.3835 235.379L64.9129 235.675ZM514.741 232.006C514.55 233.233 514.332 234.457 514.087 235.675L512.616 235.379C512.857 234.182 513.071 232.981 513.259 231.775L514.741 232.006ZM66.6924 242.911C66.3446 241.718 66.0225 240.519 65.7262 239.315L67.1827 238.956C67.4739 240.14 67.7906 241.318 68.1325 242.491L66.6924 242.911ZM513.274 239.315C512.978 240.519 512.655 241.718 512.308 242.911L510.867 242.491C511.209 241.318 511.526 240.14 511.817 238.956L513.274 239.315ZM69.0698 249.971C68.6257 248.81 68.206 247.644 67.8111 246.472L69.2325 245.993C69.621 247.146 70.0338 248.293 70.4707 249.435L69.0698 249.971ZM511.189 246.472C510.794 247.644 510.374 248.811 509.93 249.971L508.529 249.435C508.966 248.293 509.379 247.146 509.767 245.993L511.189 246.472ZM72.0016 256.817C71.469 255.695 70.9594 254.566 70.4733 253.432L71.852 252.841C72.3305 253.958 72.8322 255.069 73.3567 256.174L72.0016 256.817ZM508.527 253.432C508.041 254.566 507.531 255.695 506.998 256.817L505.643 256.174C506.168 255.069 506.669 253.958 507.148 252.841L508.527 253.432ZM75.439 263.42C74.8259 262.339 74.2345 261.253 73.6652 260.16L74.9955 259.467C75.5565 260.544 76.1393 261.615 76.7437 262.68L75.439 263.42ZM505.335 260.16C504.765 261.253 504.174 262.34 503.561 263.42L502.256 262.68C502.861 261.615 503.444 260.544 504.004 259.467L505.335 260.16ZM79.3317 269.762C78.6466 268.726 77.9818 267.683 77.3376 266.634L78.6157 265.849C79.2511 266.884 79.9069 267.912 80.583 268.935L79.3317 269.762ZM501.662 266.634C501.018 267.683 500.353 268.726 499.668 269.762L498.417 268.935C499.093 267.912 499.749 266.884 500.384 265.849L501.662 266.634ZM83.6306 275.832C82.8817 274.841 82.1517 273.845 81.4408 272.842L82.6647 271.974C83.3664 272.965 84.0873 273.949 84.827 274.927L83.6306 275.832ZM497.559 272.842C496.848 273.845 496.118 274.841 495.369 275.832L494.173 274.927C494.913 273.949 495.634 272.965 496.335 271.974L497.559 272.842ZM88.2899 281.625C87.4849 280.682 86.6974 279.732 85.9278 278.775L87.0964 277.835C87.8569 278.78 88.6352 279.719 89.431 280.652L88.2899 281.625ZM493.072 278.775C492.303 279.732 491.515 280.682 490.71 281.625L489.569 280.652C490.365 279.719 491.143 278.78 491.904 277.835L493.072 278.775ZM93.2679 287.144C92.4139 286.247 91.5763 285.344 90.7551 284.434L91.8686 283.429C92.6807 284.328 93.5093 285.222 94.3542 286.109L93.2679 287.144ZM488.245 284.434C487.424 285.344 486.586 286.247 485.732 287.144L484.646 286.109C485.491 285.222 486.319 284.328 487.131 283.429L488.245 284.434ZM98.5278 292.392C97.6294 291.539 96.7462 290.68 95.8783 289.815L96.9375 288.753C97.7965 289.609 98.6708 290.46 99.5603 291.304L98.5278 292.392ZM483.122 289.815C482.254 290.68 481.371 291.539 480.472 292.392L479.44 291.304C480.329 290.46 481.203 289.609 482.062 288.753L483.122 289.815ZM104.037 297.376C103.098 296.565 102.173 295.748 101.262 294.924L102.268 293.812C103.17 294.628 104.087 295.437 105.017 296.24L104.037 297.376ZM477.738 294.924C476.827 295.748 475.902 296.565 474.963 297.376L473.983 296.24C474.913 295.437 475.83 294.628 476.732 293.812L477.738 294.924ZM109.769 302.104C108.792 301.333 107.829 300.556 106.879 299.773L107.833 298.616C108.775 299.392 109.73 300.162 110.698 300.926L109.769 302.104ZM472.121 299.773C471.171 300.556 470.208 301.333 469.231 302.104L468.302 300.926C469.27 300.163 470.225 299.392 471.167 298.616L472.121 299.773ZM115.698 306.585C114.687 305.853 113.689 305.114 112.703 304.369L113.607 303.173C114.585 303.911 115.575 304.644 116.578 305.37L115.698 306.585ZM466.297 304.369C465.311 305.114 464.313 305.853 463.302 306.585L462.422 305.37C463.425 304.644 464.415 303.911 465.393 303.173L466.297 304.369ZM121.795 310.822C120.756 310.128 119.728 309.429 118.711 308.722L119.567 307.491C120.576 308.191 121.596 308.886 122.628 309.574L121.795 310.822ZM460.289 308.723C459.272 309.429 458.244 310.128 457.205 310.822L456.372 309.574C457.404 308.886 458.424 308.191 459.433 307.491L460.289 308.723ZM128.033 314.818C126.973 314.165 125.924 313.506 124.886 312.841L125.695 311.578C126.726 312.238 127.767 312.892 128.819 313.54L128.033 314.818ZM454.114 312.841C453.076 313.506 452.027 314.165 450.967 314.818L450.181 313.54C451.233 312.892 452.274 312.238 453.305 311.578L454.114 312.841ZM134.411 318.592C133.334 317.979 132.267 317.36 131.21 316.735L131.974 315.444C133.023 316.065 134.083 316.68 135.153 317.288L134.411 318.592ZM447.79 316.735C446.733 317.36 445.666 317.979 444.589 318.592L443.847 317.288C444.917 316.68 445.977 316.065 447.026 315.444L447.79 316.735ZM140.917 322.153C139.825 321.578 138.743 320.997 137.669 320.41L138.389 319.094C139.455 319.677 140.531 320.255 141.616 320.826L140.917 322.153ZM441.331 320.41C440.257 320.997 439.175 321.578 438.083 322.153L437.384 320.826C438.469 320.255 439.544 319.677 440.611 319.094L441.331 320.41ZM147.539 325.508C146.424 324.965 145.318 324.415 144.22 323.859L144.898 322.521C145.989 323.073 147.088 323.62 148.196 324.16L147.539 325.508ZM434.78 323.859C433.682 324.415 432.576 324.965 431.461 325.508L430.804 324.16C431.912 323.62 433.011 323.073 434.102 322.521L434.78 323.859ZM154.267 328.663C153.129 328.15 151.999 327.63 150.878 327.105L151.515 325.747C152.63 326.269 153.753 326.786 154.884 327.296L154.267 328.663ZM428.122 327.105C427 327.63 425.871 328.15 424.733 328.663L424.116 327.296C425.247 326.786 426.37 326.269 427.485 325.747L428.122 327.105ZM161.053 331.608C159.906 331.13 158.768 330.645 157.637 330.154L158.234 328.778C159.358 329.266 160.491 329.748 161.63 330.224L161.053 331.608ZM421.363 330.154C420.232 330.645 419.094 331.13 417.947 331.608L417.37 330.224C418.509 329.748 419.642 329.266 420.766 328.778L421.363 330.154ZM167.927 334.366C166.773 333.922 165.627 333.471 164.488 333.014L165.047 331.622C166.179 332.076 167.319 332.524 168.466 332.967L167.927 334.366ZM414.512 333.014C413.373 333.471 412.227 333.922 411.073 334.366L410.534 332.967C411.681 332.524 412.821 332.076 413.953 331.622L414.512 333.014ZM174.882 336.943C173.717 336.529 172.559 336.108 171.408 335.682L171.929 334.275C173.074 334.699 174.226 335.118 175.385 335.53L174.882 336.943ZM407.592 335.682C406.441 336.108 405.283 336.529 404.118 336.943L403.615 335.53C404.774 335.118 405.926 334.699 407.071 334.275L407.592 335.682ZM181.913 339.342C180.729 338.954 179.551 338.561 178.379 338.161L178.864 336.742C180.029 337.139 181.201 337.531 182.379 337.916L181.913 339.342ZM400.621 338.161C399.449 338.561 398.271 338.954 397.087 339.342L396.621 337.916C397.799 337.531 398.971 337.139 400.136 336.742L400.621 338.161ZM188.969 341.554C187.781 341.197 186.599 340.835 185.423 340.466L185.872 339.035C187.042 339.401 188.218 339.762 189.4 340.117L188.969 341.554ZM393.577 340.466C392.401 340.835 391.219 341.197 390.031 341.554L389.6 340.117C390.782 339.762 391.958 339.401 393.128 339.035L393.577 340.466ZM196.088 343.597C194.897 343.27 193.713 342.938 192.533 342.6L192.947 341.158C194.121 341.495 195.3 341.825 196.484 342.15L196.088 343.597ZM386.466 342.6C385.287 342.938 384.102 343.27 382.912 343.597L382.516 342.15C383.7 341.825 384.879 341.495 386.053 341.158L386.466 342.6ZM203.266 345.474C202.064 345.175 200.867 344.869 199.675 344.557L200.055 343.106C201.241 343.417 202.432 343.721 203.629 344.019L203.266 345.474ZM379.325 344.558C378.133 344.869 376.936 345.175 375.734 345.474L375.371 344.019C376.568 343.721 377.759 343.417 378.945 343.106L379.325 344.558ZM210.478 347.184C209.266 346.911 208.059 346.632 206.857 346.347L207.203 344.888C208.4 345.172 209.601 345.449 210.808 345.721L210.478 347.184ZM372.143 346.347C370.941 346.632 369.734 346.911 368.522 347.184L368.192 345.721C369.399 345.449 370.6 345.172 371.797 344.888L372.143 346.347ZM217.713 348.729C216.502 348.484 215.295 348.233 214.092 347.977L214.405 346.51C215.602 346.765 216.804 347.015 218.01 347.258L217.713 348.729ZM364.908 347.977C363.705 348.233 362.498 348.484 361.286 348.729L360.99 347.258C362.196 347.015 363.398 346.765 364.595 346.51L364.908 347.977ZM224.996 350.117C223.781 349.899 222.569 349.675 221.362 349.445L221.643 347.971C222.845 348.2 224.051 348.423 225.261 348.64L224.996 350.117ZM357.638 349.445C356.431 349.675 355.219 349.899 354.004 350.117L353.739 348.64C354.949 348.423 356.155 348.2 357.357 347.971L357.638 349.445ZM232.312 351.348C231.085 351.154 229.861 350.955 228.642 350.75L228.891 349.271C230.105 349.475 231.323 349.673 232.545 349.866L232.312 351.348ZM350.358 350.75C349.139 350.955 347.915 351.154 346.688 351.348L346.454 349.866C347.677 349.673 348.895 349.475 350.109 349.271L350.358 350.75ZM239.629 352.42C238.403 352.253 237.182 352.081 235.964 351.902L236.182 350.418C237.394 350.596 238.611 350.768 239.831 350.933L239.629 352.42ZM343.036 351.902C341.818 352.081 340.596 352.253 339.371 352.42L339.169 350.933C340.389 350.768 341.606 350.596 342.818 350.418L343.036 351.902ZM246.983 353.341C245.757 353.2 244.535 353.054 243.316 352.901L243.502 351.413C244.716 351.565 245.933 351.711 247.154 351.851L246.983 353.341ZM335.684 352.901C334.465 353.054 333.243 353.2 332.017 353.341L331.846 351.851C333.067 351.711 334.284 351.565 335.498 351.413L335.684 352.901ZM254.361 354.112C253.125 353.995 251.891 353.873 250.662 353.745L250.818 352.253C252.042 352.381 253.27 352.503 254.502 352.619L254.361 354.112ZM328.338 353.745C327.108 353.873 325.875 353.995 324.639 354.112L324.498 352.619C325.73 352.503 326.958 352.381 328.182 352.253L328.338 353.745ZM261.729 354.731C260.497 354.64 259.267 354.543 258.041 354.44L258.166 352.945C259.388 353.048 260.612 353.144 261.84 353.235L261.729 354.731ZM320.959 354.44C319.733 354.543 318.503 354.64 317.271 354.731L317.16 353.235C318.388 353.144 319.612 353.048 320.834 352.945L320.959 354.44ZM269.127 355.204C267.894 355.137 266.664 355.065 265.437 354.986L265.532 353.489C266.754 353.567 267.979 353.64 269.207 353.706L269.127 355.204ZM313.563 354.986C312.336 355.065 311.106 355.137 309.873 355.204L309.793 353.706C311.021 353.64 312.246 353.567 313.468 353.489L313.563 354.986ZM276.532 355.529C275.293 355.487 274.056 355.439 272.821 355.384L272.887 353.886C274.117 353.94 275.349 353.988 276.584 354.03L276.532 355.529ZM306.179 355.384C304.944 355.439 303.707 355.487 302.468 355.529L302.416 354.03C303.651 353.988 304.883 353.94 306.113 353.886L306.179 355.384ZM283.927 355.709C282.693 355.691 281.46 355.667 280.23 355.637L280.267 354.138C281.492 354.168 282.719 354.192 283.949 354.21L283.927 355.709ZM298.769 355.637C297.54 355.667 296.307 355.691 295.073 355.709L295.051 354.21C296.281 354.192 297.508 354.168 298.733 354.138L298.769 355.637ZM289.5 355.75C288.879 355.75 288.259 355.748 287.639 355.745L287.646 354.245C288.263 354.249 288.881 354.25 289.5 354.25C290.119 354.25 290.736 354.249 291.354 354.245L291.361 355.745C290.741 355.748 290.121 355.75 289.5 355.75Z" fill="#7D92EF"></path>
  <path fill-rule="evenodd" clip-rule="evenodd" d="M482.843 234.881L481.017 234.617L481.231 233.133L483.058 233.397L482.843 234.881ZM477.363 234.09L473.71 233.562L473.924 232.077L477.578 232.605L477.363 234.09ZM470.056 233.034L466.403 232.507L466.617 231.022L470.271 231.55L470.056 233.034ZM462.75 231.979L459.096 231.451L459.311 229.967L462.964 230.494L462.75 231.979ZM455.443 230.924L451.79 230.396L452.004 228.911L455.657 229.439L455.443 230.924ZM448.136 229.868L444.483 229.341L444.697 227.856L448.351 228.384L448.136 229.868ZM440.829 228.813L437.176 228.285L437.39 226.801L441.044 227.328L440.829 228.813ZM433.523 227.758L429.869 227.23L430.084 225.745L433.737 226.273L433.523 227.758ZM426.216 226.702L422.563 226.175L422.777 224.69L426.43 225.218L426.216 226.702ZM418.909 225.647L415.256 225.119L415.47 223.635L419.124 224.162L418.909 225.647ZM411.602 224.591L407.949 224.064L408.164 222.579L411.817 223.107L411.602 224.591ZM404.296 223.536L400.642 223.008L400.857 221.524L404.51 222.052L404.296 223.536ZM396.989 222.481L393.336 221.953L393.55 220.468L397.203 220.996L396.989 222.481ZM389.682 221.425L386.029 220.898L386.243 219.413L389.897 219.941L389.682 221.425ZM382.375 220.37L378.722 219.842L378.937 218.358L382.59 218.885L382.375 220.37ZM375.069 219.315L371.415 218.787L371.63 217.302L375.283 217.83L375.069 219.315ZM367.762 218.259L364.109 217.732L364.323 216.247L367.976 216.775L367.762 218.259ZM360.455 217.204L356.802 216.676L357.016 215.192L360.67 215.719L360.455 217.204ZM353.148 216.149L349.495 215.621L349.71 214.136L353.363 214.664L353.148 216.149ZM345.842 215.093L342.188 214.565L342.403 213.081L346.056 213.609L345.842 215.093ZM338.535 214.038L334.882 213.51L335.096 212.026L338.749 212.553L338.535 214.038ZM331.228 212.982L327.575 212.455L327.789 210.97L331.443 211.498L331.228 212.982ZM323.921 211.927L320.268 211.399L320.482 209.915L324.136 210.442L323.921 211.927ZM316.615 210.872L312.961 210.344L313.176 208.859L316.829 209.387L316.615 210.872ZM309.308 209.816L305.654 209.289L305.869 207.804L309.522 208.332L309.308 209.816ZM302.001 208.761L298.348 208.233L298.562 206.749L302.216 207.276L302.001 208.761ZM294.694 207.706L291.041 207.178L291.255 205.693L294.909 206.221L294.694 207.706ZM287.388 206.65L283.734 206.123L283.949 204.638L287.602 205.166L287.388 206.65ZM280.081 205.595L276.427 205.067L276.642 203.583L280.295 204.11L280.081 205.595ZM272.774 204.539L269.121 204.012L269.335 202.527L272.988 203.055L272.774 204.539ZM265.467 203.484L261.814 202.956L262.028 201.472L265.682 201.999L265.467 203.484ZM258.16 202.429L254.507 201.901L254.721 200.416L258.375 200.944L258.16 202.429ZM250.854 201.373L247.2 200.846L247.415 199.361L251.068 199.889L250.854 201.373ZM243.547 200.318L239.893 199.79L240.108 198.306L243.761 198.833L243.547 200.318ZM236.24 199.263L232.587 198.735L232.801 197.25L236.455 197.778L236.24 199.263ZM228.933 198.207L225.28 197.68L225.494 196.195L229.148 196.723L228.933 198.207ZM221.627 197.152L217.973 196.624L218.188 195.14L221.841 195.667L221.627 197.152ZM214.32 196.096L210.666 195.569L210.881 194.084L214.534 194.612L214.32 196.096ZM207.013 195.041L203.36 194.513L203.574 193.029L207.227 193.557L207.013 195.041ZM199.706 193.986L196.053 193.458L196.267 191.973L199.921 192.501L199.706 193.986ZM192.399 192.93L188.746 192.403L188.961 190.918L192.614 191.446L192.399 192.93ZM185.093 191.875L181.439 191.347L181.654 189.863L185.307 190.39L185.093 191.875ZM177.786 190.82L174.133 190.292L174.347 188.807L178 189.335L177.786 190.82ZM170.479 189.764L166.826 189.237L167.04 187.752L170.694 188.28L170.479 189.764ZM163.172 188.709L159.519 188.181L159.733 186.697L163.387 187.224L163.172 188.709ZM155.866 187.654L152.212 187.126L152.427 185.641L156.08 186.169L155.866 187.654ZM148.559 186.598L144.905 186.07L145.12 184.586L148.773 185.114L148.559 186.598ZM141.252 185.543L137.599 185.015L137.813 183.53L141.467 184.058L141.252 185.543ZM133.945 184.487L130.292 183.96L130.506 182.475L134.16 183.003L133.945 184.487ZM126.639 183.432L122.985 182.904L123.2 181.42L126.853 181.947L126.639 183.432ZM119.332 182.377L115.678 181.849L115.893 180.364L119.546 180.892L119.332 182.377ZM112.025 181.321L108.372 180.794L108.586 179.309L112.239 179.837L112.025 181.321ZM104.718 180.266L102.892 180.002L103.106 178.517L104.933 178.781L104.718 180.266Z" fill="#7D92EF"></path>
  <path fill-rule="evenodd" clip-rule="evenodd" d="M333.299 331.26L332.654 329.51L334.061 328.991L334.706 330.741L333.299 331.26ZM331.364 326.01L330.075 322.51L331.483 321.991L332.772 325.491L331.364 326.01ZM328.786 319.01L327.496 315.51L328.904 314.991L330.193 318.491L328.786 319.01ZM326.207 312.01L324.917 308.51L326.325 307.991L327.614 311.491L326.207 312.01ZM323.628 305.01L322.338 301.51L323.746 300.991L325.035 304.491L323.628 305.01ZM321.049 298.01L319.759 294.51L321.167 293.991L322.456 297.491L321.049 298.01ZM318.47 291.01L317.18 287.51L318.588 286.991L319.877 290.491L318.47 291.01ZM315.891 284.01L314.601 280.51L316.009 279.991L317.298 283.491L315.891 284.01ZM313.312 277.01L312.022 273.51L313.43 272.991L314.719 276.491L313.312 277.01ZM310.733 270.01L309.444 266.51L310.851 265.991L312.14 269.491L310.733 270.01ZM308.154 263.01L306.865 259.51L308.272 258.991L309.562 262.491L308.154 263.01ZM305.575 256.01L304.286 252.51L305.693 251.991L306.983 255.491L305.575 256.01ZM302.996 249.01L301.707 245.51L303.114 244.991L304.404 248.491L302.996 249.01ZM300.417 242.01L299.128 238.51L300.535 237.991L301.825 241.491L300.417 242.01ZM297.838 235.01L296.549 231.51L297.956 230.991L299.246 234.491L297.838 235.01ZM295.259 228.01L293.97 224.51L295.377 223.991L296.667 227.491L295.259 228.01ZM292.68 221.01L291.391 217.51L292.798 216.991L294.088 220.491L292.68 221.01ZM290.101 214.01L288.812 210.51L290.22 209.991L291.509 213.491L290.101 214.01ZM287.523 207.01L286.233 203.51L287.641 202.991L288.93 206.491L287.523 207.01ZM284.944 200.01L283.654 196.51L285.062 195.991L286.351 199.491L284.944 200.01ZM282.365 193.01L281.075 189.51L282.483 188.991L283.772 192.491L282.365 193.01ZM279.786 186.01L278.496 182.51L279.904 181.991L281.193 185.491L279.786 186.01ZM277.207 179.01L275.917 175.51L277.325 174.991L278.614 178.491L277.207 179.01ZM274.628 172.01L273.338 168.51L274.746 167.991L276.035 171.491L274.628 172.01ZM272.049 165.01L270.759 161.51L272.167 160.991L273.456 164.491L272.049 165.01ZM269.47 158.01L268.181 154.51L269.588 153.991L270.878 157.491L269.47 158.01ZM266.891 151.01L265.602 147.51L267.009 146.991L268.299 150.491L266.891 151.01ZM264.312 144.01L263.023 140.51L264.43 139.991L265.72 143.491L264.312 144.01ZM261.733 137.01L260.444 133.51L261.851 132.991L263.141 136.491L261.733 137.01ZM259.154 130.01L257.865 126.51L259.272 125.991L260.562 129.491L259.154 130.01ZM256.575 123.01L255.286 119.51L256.693 118.991L257.983 122.491L256.575 123.01ZM253.996 116.01L252.707 112.51L254.114 111.991L255.404 115.491L253.996 116.01ZM251.417 109.01L250.128 105.51L251.536 104.991L252.825 108.491L251.417 109.01ZM248.839 102.01L247.549 98.5097L248.957 97.9911L250.246 101.491L248.839 102.01ZM246.26 95.0097L244.97 91.5097L246.378 90.9911L247.667 94.4911L246.26 95.0097ZM243.681 88.0097L242.391 84.5097L243.799 83.9911L245.088 87.4911L243.681 88.0097ZM241.102 81.0097L239.812 77.5097L241.22 76.9911L242.509 80.4911L241.102 81.0097ZM238.523 74.0097L237.233 70.5097L238.641 69.9911L239.93 73.4911L238.523 74.0097ZM235.944 67.0097L235.299 65.2597L236.707 64.7411L237.351 66.4911L235.944 67.0097Z" fill="#7D92EF"></path>
  <path d="M164.152 1.92394C166.555 0.722651 169.4 0.807309 171.727 2.14932L274.249 61.278C276.416 62.528 277.752 64.8397 277.752 67.3417V109.568C277.752 112.202 276.033 114.529 273.516 115.303L269.77 116.455C268.647 116.801 267.429 116.635 266.439 116.002L168.149 53.161C166.153 51.8852 164.825 49.7906 164.523 47.4414L159.362 7.31756C159.145 5.63029 160.019 3.99035 161.541 3.22957L164.152 1.92394Z" fill="#A9BBD8"></path>
  <path d="M475.152 195.924C477.555 194.723 480.4 194.807 482.727 196.149L585.249 255.278C587.416 256.528 588.752 258.84 588.752 261.342V303.568C588.752 306.202 587.033 308.529 584.516 309.303L580.77 310.455C579.647 310.801 578.429 310.635 577.439 310.002L479.149 247.161C477.153 245.885 475.825 243.791 475.523 241.441L470.362 201.318C470.145 199.63 471.019 197.99 472.541 197.23L475.152 195.924Z" fill="#A9BBD8"></path>
  <path d="M385.085 39.9577C387.524 38.7379 390.417 38.8451 392.76 40.2422L454.837 77.2618C456.954 78.5246 458.252 80.8084 458.252 83.2739V125.568C458.252 128.202 456.533 130.529 454.016 131.303L450.371 132.424C449.191 132.788 447.909 132.585 446.897 131.876L388.889 91.1754C387.049 89.8839 385.837 87.8773 385.55 85.6471L380.362 45.3176C380.145 43.6303 381.019 41.9904 382.541 41.2296L385.085 39.9577Z" fill="#A9BBD8"></path>
  <path d="M101.085 266.958C103.524 265.738 106.417 265.845 108.76 267.242L170.837 304.262C172.954 305.525 174.252 307.808 174.252 310.274V352.568C174.252 355.202 172.533 357.529 170.016 358.303L166.371 359.424C165.191 359.788 163.909 359.585 162.897 358.876L104.889 318.175C103.049 316.884 101.837 314.877 101.55 312.647L96.3624 272.318C96.1454 270.63 97.0193 268.99 98.5409 268.23L101.085 266.958Z" fill="#A9BBD8"></path>
  <path d="M311.092 296.954C313.527 295.736 316.415 295.841 318.756 297.233L408.828 350.763C410.951 352.025 412.252 354.312 412.252 356.781V399.068C412.252 401.702 410.533 404.029 408.016 404.803L404.315 405.942C403.167 406.295 401.92 406.113 400.92 405.446L315.031 348.169C313.106 346.885 311.83 344.83 311.535 342.534L306.362 302.318C306.145 300.63 307.019 298.99 308.541 298.23L311.092 296.954Z" fill="#A9BBD8"></path>
  <path d="M380 44.7032C380 42.3836 382.52 40.9416 384.52 42.1167L449.546 80.3246C451.686 81.5818 453 83.8781 453 86.3598V128.512C453 131.605 449.64 133.528 446.974 131.961L383.947 94.9282C381.502 93.4914 380 90.8671 380 88.0308V44.7032Z" fill="#E1EAFA"></path>
  <path d="M159 6.66512C159 4.35394 161.503 2.91078 163.503 4.06905L268.26 64.7368C270.421 65.9885 271.752 68.2968 271.752 70.7943V112.968C271.752 116.05 268.414 117.974 265.747 116.43L162.991 56.9201C160.521 55.4897 159 52.8516 159 49.9973V6.66512Z" fill="#E1EAFA"></path>
  <path d="M96 271.703C96 269.384 98.5199 267.942 100.52 269.117L165.546 307.325C167.686 308.582 169 310.878 169 313.36V355.512C169 358.605 165.64 360.528 162.974 358.961L99.9472 321.928C97.5018 320.491 96 317.867 96 315.031V271.703Z" fill="#E1EAFA"></path>
  <path d="M470 200.665C470 198.354 472.503 196.911 474.503 198.069L579.26 258.737C581.421 259.988 582.752 262.297 582.752 264.794V306.968C582.752 310.05 579.414 311.974 576.747 310.43L473.991 250.92C471.521 249.49 470 246.852 470 243.997V200.665Z" fill="#E1EAFA"></path>
  <path d="M306 301.768C306 299.435 308.548 297.994 310.547 299.198L402.11 354.313C404.214 355.58 405.5 357.855 405.5 360.311V402.425C405.5 405.537 402.103 407.457 399.437 405.852L309.874 351.941C307.47 350.494 306 347.893 306 345.087V301.768Z" fill="#E1EAFA"></path>
  <g clip-path="url(#clip0_1899_15180)">
    <path d="M193.355 40.9177C195.471 42.1602 196.472 44.1727 196.426 46.4215C196.396 48.1139 195.805 48.8076 194.629 48.5026C196.153 49.7452 196.889 51.3156 196.851 53.2899C196.806 55.5159 195.653 56.3925 193.34 55.0204L189.062 52.4971L189.336 38.5469L193.363 40.9177H193.355ZM190.716 41.2073L190.632 45.3695L193.044 46.7951C194.386 47.5879 194.955 47.0847 194.978 45.7355C195.001 44.3862 194.417 43.3875 193.12 42.6252L190.708 41.2073H190.716ZM190.602 47.0695L190.519 51.4147L193.423 53.1222C194.781 53.9227 195.41 53.6254 195.441 52.2227C195.471 50.7362 194.902 49.5851 193.484 48.7466L190.61 47.0619L190.602 47.0695Z" fill="#253858"></path>
    <path d="M199.4 43.7124C199.886 43.9563 200.303 44.6957 200.325 45.3742C200.325 45.4352 200.325 45.4885 200.325 45.5419C200.31 46.2432 199.878 46.5634 199.355 46.2585C198.831 45.9535 198.422 45.1303 198.429 44.4289C198.407 43.7505 198.786 43.3998 199.271 43.6361C199.317 43.659 199.355 43.6819 199.4 43.7124ZM198.627 47.3867L199.984 48.1871L199.779 58.8061L198.422 58.0057L198.627 47.3867Z" fill="#253858"></path>
    <path d="M204.989 60.0733C205.277 60.2333 205.566 60.3477 205.846 60.4239L205.808 62.1848C205.505 62.1239 205.202 62.0019 204.891 61.8113C203.2 60.8127 202.403 58.9984 202.441 57.0164L202.547 51.4134L201.266 50.6587L201.296 48.9664L202.578 49.7211L202.623 47.457L203.943 48.2346L203.897 50.4834L205.998 51.7183L205.968 53.4107L203.867 52.1757L203.761 57.7482C203.746 58.6858 204.14 59.5625 204.989 60.058V60.0733Z" fill="#253858"></path>
    <path d="M211.399 65.8687C210.246 65.1902 209.374 63.9705 208.927 62.3087L208.889 64.1763L207.531 63.3759L207.827 48.3203L209.192 49.1284L209.071 55.4784C209.602 54.373 210.565 54.213 211.778 54.9295C213.879 56.1645 214.888 59.1908 214.827 62.3087C214.759 65.2969 213.606 67.1722 211.399 65.8763V65.8687ZM211.376 56.4008C210.155 55.6842 209.063 56.0882 209.01 58.4438L208.995 59.2899C208.949 61.6455 209.92 63.2692 211.08 63.9553C212.612 64.8548 213.431 63.9629 213.477 61.5006C213.515 58.9469 212.779 57.2241 211.376 56.3932V56.4008Z" fill="#253858"></path>
    <path d="M216.342 57.8242L217.699 58.6246L217.57 65.0433C217.532 66.9567 218.086 68.1383 219.375 68.9006C220.634 69.64 221.529 69.0302 221.567 66.8881L221.681 60.9726L223.038 61.773L222.833 72.392L221.476 71.5915L221.506 69.8458C220.991 70.7835 220.012 70.9741 218.973 70.3337C217.161 69.2665 216.152 66.9643 216.205 64.0447L216.326 57.8242H216.342Z" fill="#253858"></path>
    <path d="M230.487 76.6052C230.009 76.6662 229.281 76.3841 228.553 75.9496C225.747 74.2954 224.473 71.2309 224.533 67.9683C224.594 64.7056 225.951 63.2419 228.765 64.8961C229.417 65.2544 230.054 65.8109 230.638 66.5275L230.608 68.2198C230.054 67.5337 229.44 67.0077 228.826 66.6647C226.771 65.4526 225.906 66.7028 225.86 68.7611C225.815 70.8193 226.642 73.0605 228.704 74.2802C229.311 74.6613 229.925 74.89 230.509 74.9586L230.487 76.6052Z" fill="#253858"></path>
    <path d="M232.023 77.7978L232.319 62.7422L233.676 63.5426L233.494 72.9571L236.983 69.9841L238.75 71.0285L234.935 74.0549L238.697 81.7389L236.847 80.6488L233.472 73.6356L233.373 78.6058L232.016 77.8054L232.023 77.7978Z" fill="#253858"></path>
    <path d="M243.19 84.59C240.24 82.8519 238.988 79.795 239.049 76.54C239.11 73.2849 240.482 71.8213 242.879 73.2316C245.275 74.6418 246.246 77.5157 246.178 80.7403L246.163 81.5712L240.399 78.1789C240.551 80.0923 241.4 81.777 243.258 82.8748C244.077 83.355 244.896 83.6447 245.67 83.7133L245.639 85.4056C244.98 85.4895 243.986 85.0702 243.182 84.5976L243.19 84.59ZM240.422 76.6162L244.828 79.2081C244.79 77.1879 244.145 75.6709 242.788 74.8705C241.347 74.0167 240.604 74.84 240.422 76.601V76.6162Z" fill="#253858"></path>
    <path d="M250.864 87.0811C251.152 87.2412 251.441 87.3555 251.721 87.4317L251.683 89.1927C251.38 89.1317 251.077 89.0097 250.766 88.8191C249.075 87.8205 248.278 86.0062 248.316 84.0242L248.422 78.4212L247.141 77.6665L247.171 75.9742L248.453 76.7289L248.498 74.4648L249.825 75.2424L249.78 77.4912L251.881 78.7262L251.85 80.4185L249.749 79.1835L249.643 84.756C249.628 85.6937 250.022 86.5703 250.864 87.0658V87.0811Z" fill="#253858"></path>
    <path d="M172.747 29.1841C172.549 29.0622 172.383 29.1841 172.375 29.4509C172.375 29.4814 172.375 29.5043 172.375 29.5348L173.657 42.8676C173.687 43.203 173.884 43.5537 174.127 43.6985L181.43 47.9979C181.605 48.1047 181.764 48.0208 181.794 47.8074L183.561 36.1288C183.599 35.8848 183.47 35.557 183.273 35.397C183.25 35.3817 183.235 35.3665 183.212 35.3512L172.747 29.1841ZM178.988 41.9528L176.652 40.5807L176.106 35.7705L179.633 37.8516L178.981 41.9528H178.988Z" fill="#2684FF"></path>
    <path d="M183.004 39.8258L179.637 37.8438L178.985 41.945L176.649 40.5728L173.812 43.3476C173.896 43.5001 174.01 43.6221 174.123 43.6907L181.434 47.9977C181.609 48.1044 181.768 48.0206 181.798 47.8071L183.004 39.8334V39.8258Z" fill="url(#paint0_linear_1899_15180)"></path>
  </g>
  <g clip-path="url(#clip1_1899_15180)">
    <path d="M503.025 247.55C502.331 247.745 501.266 247.398 500.166 246.755C496.664 244.734 494.795 240.792 494.973 236.343C495.15 232.038 497.248 230.177 500.724 232.181C501.765 232.782 502.788 233.636 503.524 234.795L503.448 236.664C502.712 235.582 501.883 234.761 500.648 234.051C498.144 232.604 496.563 233.949 496.436 237.189C496.301 240.428 497.764 243.482 500.293 244.945C501.257 245.512 502.213 245.766 503.093 245.681L503.025 247.559V247.55Z" fill="#253858"></path>
    <path d="M504.243 243.361C504.37 240.138 505.901 238.616 508.329 240.02C510.765 241.424 512.067 244.579 511.932 247.801C511.805 251.024 510.291 252.606 507.872 251.21C505.453 249.815 504.108 246.583 504.235 243.361H504.243ZM505.605 244.147C505.52 246.194 506.214 248.478 507.948 249.485C509.682 250.491 510.494 249.062 510.579 247.015C510.663 244.968 509.995 242.735 508.269 241.745C506.544 240.756 505.698 242.109 505.614 244.156L505.605 244.147Z" fill="#253858"></path>
    <path d="M520.246 258.133L518.85 257.329L519.112 250.833C519.189 248.896 518.639 247.695 517.311 246.934C515.983 246.173 515.069 246.807 514.985 248.981L514.739 254.961L513.344 254.158L513.775 243.398L515.171 244.202L515.103 245.97C515.661 245.014 516.685 244.828 517.751 245.471C519.62 246.545 520.618 248.879 520.5 251.84L520.246 258.141V258.133Z" fill="#253858"></path>
    <path d="M524.569 249.622L526.667 250.832L526.599 252.541L524.502 251.331L524.138 260.373L522.776 259.586L523.14 250.544L521.82 249.783L521.888 248.075L523.207 248.836L523.258 247.652C523.343 245.655 524.239 244.784 525.973 245.782C526.295 245.96 526.608 246.205 526.904 246.493L526.836 248.201C526.549 247.965 526.261 247.753 525.965 247.584C525.102 247.085 524.645 247.508 524.603 248.472L524.561 249.606L524.569 249.622Z" fill="#253858"></path>
    <path d="M529.905 263.773C528.577 263.003 527.765 261.675 527.841 259.696L528.348 247.203L529.744 248.007L529.245 260.288C529.203 261.269 529.676 261.878 530.277 262.225C530.412 262.31 530.548 262.378 530.683 262.437L530.615 264.095C530.378 264.027 530.133 263.917 529.896 263.765L529.905 263.773Z" fill="#253858"></path>
    <path d="M532.239 254.047L533.635 254.85L533.373 261.346C533.296 263.283 533.846 264.485 535.174 265.246C536.502 266.007 537.416 265.373 537.5 263.199L537.746 257.219L539.15 258.031L538.718 268.79L537.323 267.986L537.39 266.219C536.832 267.174 535.809 267.36 534.743 266.718C532.874 265.643 531.875 263.309 531.994 260.357L532.248 254.047H532.239Z" fill="#253858"></path>
    <path d="M544.693 272.461C541.656 270.71 540.422 267.614 540.557 264.315C540.692 261.067 542.147 259.528 544.617 260.957C547.121 262.404 548.026 265.279 547.899 268.553L547.865 269.39L541.944 265.973C542.062 267.918 542.908 269.61 544.828 270.718C545.674 271.2 546.512 271.488 547.324 271.564L547.256 273.273C546.571 273.357 545.539 272.943 544.71 272.461H544.693ZM541.978 264.391L546.512 267.005C546.512 264.958 545.877 263.427 544.482 262.615C543.001 261.752 542.206 262.59 541.986 264.374L541.978 264.391Z" fill="#253858"></path>
    <path d="M556.23 278.895L554.835 278.091L555.097 271.595C555.173 269.658 554.623 268.457 553.295 267.696C551.967 266.935 551.054 267.569 550.969 269.743L550.724 275.723L549.328 274.919L549.759 264.16L551.155 264.964L551.087 266.732C551.646 265.776 552.669 265.59 553.735 266.232C555.604 267.307 556.602 269.641 556.484 272.602L556.23 278.903V278.895Z" fill="#253858"></path>
    <path d="M563.915 283.048C563.416 283.115 562.663 282.828 561.91 282.396C559.018 280.73 557.757 277.626 557.893 274.327C558.028 271.079 559.466 269.531 562.359 271.206C563.027 271.561 563.678 272.119 564.27 272.838L564.203 274.547C563.644 273.862 563.027 273.32 562.393 272.974C560.278 271.756 559.347 273.024 559.263 275.105C559.178 277.194 559.982 279.487 562.105 280.713C562.731 281.094 563.365 281.33 563.966 281.39L563.907 283.048H563.915Z" fill="#253858"></path>
    <path d="M569.373 286.703C566.336 284.952 565.101 281.856 565.237 278.557C565.372 275.309 566.827 273.77 569.297 275.199C571.766 276.629 572.705 279.522 572.578 282.795L572.545 283.632L566.615 280.215C566.734 282.161 567.58 283.852 569.5 284.96C570.345 285.442 571.183 285.73 571.995 285.806L571.927 287.515C571.242 287.599 570.21 287.185 569.381 286.703H569.373ZM566.658 278.633L571.191 281.247C571.191 279.2 570.557 277.669 569.161 276.857C567.681 275.994 566.886 276.832 566.666 278.617L566.658 278.633Z" fill="#253858"></path>
    <path d="M478.732 230.903C478.605 231.09 478.453 231.318 478.335 231.487C478.225 231.656 478.267 231.986 478.428 232.223L480.745 235.564C480.915 235.809 481.143 235.869 481.261 235.699C481.363 235.539 481.498 235.336 481.65 235.116C482.682 233.585 483.63 234.388 485.313 236.478L487.63 239.345C487.808 239.565 488.036 239.59 488.13 239.396C488.13 239.396 488.13 239.396 488.13 239.387L489.407 236.621C489.5 236.427 489.424 236.088 489.246 235.877C488.755 235.276 487.783 234.075 486.912 232.984C483.765 229.034 481.008 227.588 478.724 230.903H478.732Z" fill="url(#paint1_linear_1899_15180)"></path>
    <path d="M489.802 229.346C489.929 229.16 490.081 228.932 490.199 228.763C490.309 228.593 490.267 228.264 490.106 228.027L487.789 224.686C487.628 224.44 487.391 224.364 487.273 224.525C487.273 224.525 487.264 224.542 487.256 224.542C487.154 224.703 487.019 224.906 486.867 225.126C485.835 226.656 484.887 225.853 483.204 223.764L480.895 220.905C480.717 220.685 480.489 220.659 480.396 220.854C480.396 220.854 480.396 220.854 480.396 220.862L479.11 223.62C479.017 223.814 479.093 224.153 479.271 224.364C479.762 224.965 480.734 226.166 481.605 227.257C484.76 231.207 487.518 232.653 489.802 229.338V229.346Z" fill="url(#paint2_linear_1899_15180)"></path>
  </g>
  <path d="M5.15213 91.9239C7.5547 90.7227 10.3998 90.8073 12.7267 92.1493L115.249 151.278C117.416 152.528 118.752 154.84 118.752 157.342V199.568C118.752 202.202 117.033 204.529 114.516 205.303L110.77 206.455C109.647 206.801 108.429 206.635 107.439 206.002L9.14861 143.161C7.15304 141.885 5.82541 139.791 5.52325 137.441L0.362403 97.3176C0.145381 95.6303 1.0193 93.9904 2.54087 93.2296L5.15213 91.9239Z" fill="#A9BBD8"></path>
  <path d="M0 96.6651C0 94.3539 2.50347 92.9108 4.50347 94.069L109.26 154.737C111.421 155.988 112.752 158.297 112.752 160.794V202.968C112.752 206.05 109.414 207.974 106.747 206.43L3.99074 146.92C1.52075 145.49 0 142.852 0 139.997V96.6651Z" fill="#E1EAFA"></path>
  <g clip-path="url(#clip2_1899_15180)">
    <path d="M69.2917 152.114L67.8073 151.23L67.4766 165.276L73.4911 168.841L73.5295 167.104L68.9994 164.423L69.2917 152.114Z" fill="#191919"></path>
    <path d="M79.2679 169.771C78.8833 170.04 78.2527 170.163 77.4066 169.664C76.276 168.995 75.8376 168.012 75.8607 167.09C75.8915 165.699 76.676 165.484 78.2988 166.444C78.6064 166.629 79.0987 166.959 79.3448 167.166L79.2833 169.763L79.2679 169.771ZM77.9296 160.351C76.7298 159.645 75.6146 159.522 74.7301 159.921L75.23 161.389C75.8453 161.296 76.599 161.289 77.6681 161.926C78.891 162.649 79.4063 163.763 79.3756 165.092L79.3602 165.776C79.1218 165.576 78.6372 165.238 78.3373 165.061C75.7376 163.517 74.384 163.893 74.3302 166.314C74.2763 168.48 75.2992 170.194 76.8913 171.131C77.9604 171.761 79.0064 171.753 79.3833 170.954L79.6217 172.491L80.6677 173.113L80.8446 165.929C80.8907 163.655 80.1524 161.673 77.9373 160.359L77.9296 160.351Z" fill="#191919"></path>
    <path d="M85.4936 174.517C84.9321 174.187 84.4476 173.81 84.0861 173.372L84.2245 167.556L84.2399 166.88C84.7552 166.642 85.3936 166.626 86.1935 167.095C87.6317 167.948 88.1547 169.561 88.1009 171.644C88.0317 174.602 87.101 175.462 85.4936 174.509M86.355 165.336C85.0244 164.552 84.2861 165.274 84.2861 165.274L84.3322 163.461L84.386 161.056L83.7169 160.664L82.9324 160.203L82.6094 173.902C83.3323 174.725 84.3168 175.516 85.4013 176.161C88.1778 177.806 89.5622 176.346 89.6545 172.473C89.7237 169.4 88.5393 166.642 86.355 165.351" fill="#191919"></path>
    <path d="M53.0751 144.062C54.3903 144.838 55.2286 145.898 55.767 146.79L56.4439 145.76C55.6055 144.277 54.4441 143.071 53.1905 142.326C50.0294 140.451 47.7528 141.588 47.6375 146.521C47.5144 151.684 49.8525 155.118 52.5906 156.732C53.9596 157.546 55.1364 157.83 55.9055 157.877L56.0055 152.337L56.0208 151.691L56.0439 150.6L51.9907 148.196L51.9522 149.932L54.5441 151.469L54.4749 155.679C54.1288 155.694 53.5366 155.518 52.7444 155.049C50.5524 153.751 49.1219 151.123 49.2065 147.435C49.2911 143.67 50.8524 142.748 53.0828 144.07" fill="#191919"></path>
    <path d="M63.5775 148.736L62.1238 147.875L62.0777 150.234L62.0546 151.202L62.0392 151.763L62.0162 152.746L61.8777 158.363V158.378C61.8239 160.652 62.5622 162.627 64.7773 163.941C65.0849 164.125 65.3849 164.263 65.6695 164.363L65.7079 162.711C65.4926 162.627 65.2695 162.512 65.0311 162.373C63.8082 161.651 63.2929 160.537 63.3237 159.208L63.4621 153.591L65.8925 155.036L65.931 153.499L63.5006 152.055L63.5775 148.728V148.736Z" fill="#191919"></path>
    <path d="M58.0938 159.718L59.5474 160.579L59.8089 149.868L58.3553 149.008L58.0938 159.718Z" fill="#191919"></path>
    <path d="M58.3906 147.536L59.8443 148.396L59.8904 146.56L58.4368 145.699L58.3906 147.536Z" fill="#191919"></path>
    <path d="M31.5333 150.485L36.1711 136.47L27.7031 131.453L31.5333 150.485Z" fill="#E24329"></path>
    <path d="M21.7577 127.938L20.3502 132.194C20.2194 132.578 20.3348 133.162 20.6348 133.623L31.5255 150.488L21.7577 127.938Z" fill="#FCA326"></path>
    <path d="M21.7578 127.935L27.6954 131.454L25.3804 119.991C25.265 119.407 24.6958 119.069 24.542 119.499L21.7578 127.935Z" fill="#E24329"></path>
    <path d="M42.0988 139.988L43.2602 145.774C43.3678 146.296 43.2294 146.727 42.9141 146.826L31.5234 150.491L42.0988 139.988Z" fill="#FCA326"></path>
    <path d="M42.1016 139.993L36.1641 136.474L38.956 128.03C39.1021 127.6 39.6712 127.938 39.7943 128.522L42.1016 139.985V139.993Z" fill="#E24329"></path>
    <path d="M31.5312 150.483L36.1613 136.469L42.0989 139.988L31.5312 150.483Z" fill="#FC6D26"></path>
    <path d="M31.5333 150.488L21.7578 127.938L27.6954 131.456L31.5333 150.488Z" fill="#FC6D26"></path>
  </g>
  <g clip-path="url(#clip3_1899_15180)">
    <path fill-rule="evenodd" clip-rule="evenodd" d="M332.464 323.805C326.602 320.422 321.992 325.505 322.144 335.173C322.271 342.904 325.409 351.193 329.664 355.939C330.197 356.421 330.374 355.981 330.366 355.516C330.366 355.11 330.324 353.714 330.298 352.259C327.363 351.599 326.703 348.123 326.703 348.123C326.196 345.822 325.485 344.9 325.485 344.9C324.504 343.276 325.536 343.868 325.536 343.868C326.61 344.604 327.194 346.609 327.194 346.609C328.184 349.815 329.698 349.95 330.307 349.84C330.374 348.757 330.645 348.14 330.933 347.878C328.573 346.118 326.077 343.183 325.967 336.467C325.934 334.556 326.331 333.236 326.983 332.407C326.873 331.908 326.475 329.904 327.016 327.84C327.016 327.84 327.904 327.891 329.96 331.316C330.814 331.435 331.702 331.748 332.599 332.264C333.495 332.779 334.409 333.507 335.255 334.37C337.234 333.279 338.139 334.26 338.139 334.26C338.757 337 338.418 338.582 338.317 338.954C339.019 340.561 339.45 342.363 339.484 344.274C339.594 350.99 337.141 351.041 334.781 350.111C335.179 350.881 335.526 352.115 335.551 353.765C335.585 356.108 335.602 357.986 335.61 358.561C335.61 359.026 335.822 359.686 336.346 359.813C340.516 359.923 343.451 355.135 343.324 347.404C343.189 337.745 338.3 327.188 332.464 323.814V323.805Z" fill="black"></path>
    <path d="M354.915 353.63L351.574 351.702C351.49 351.651 351.422 351.727 351.422 351.871L351.464 354.544C351.464 354.687 351.54 354.84 351.625 354.89L352.927 355.643L352.978 358.959C352.978 358.959 352.691 358.959 351.879 358.485C350.923 357.936 349.586 356.599 349.51 351.803C349.434 347.007 350.813 347.176 352.115 347.929C353.24 348.581 353.731 349.181 354.044 349.519C354.145 349.621 354.23 349.519 354.23 349.376L354.56 347.007C354.56 346.94 354.543 346.855 354.501 346.77C354.374 346.55 353.596 345.409 351.659 344.292C349.434 343.006 347.167 343.243 347.294 350.704C347.421 358.164 350.052 360.786 352.251 362.055C354.078 363.112 355.16 362.469 355.16 362.469C355.203 362.452 355.211 362.351 355.211 362.309L355.076 353.977C355.076 353.833 355 353.681 354.915 353.63Z" fill="black"></path>
    <path d="M372.003 356.921C372.003 356.777 371.927 356.625 371.843 356.574L369.965 355.491C369.88 355.44 369.813 355.517 369.813 355.66L369.906 361.607L366.979 359.915L366.886 353.969C366.886 353.825 366.81 353.673 366.725 353.622L364.848 352.539C364.763 352.488 364.695 352.565 364.695 352.708L364.958 368.813C364.958 368.957 365.034 369.109 365.118 369.16L366.996 370.243C367.081 370.293 367.148 370.217 367.148 370.073L367.038 363.188L369.965 364.88L370.075 371.765C370.075 371.909 370.151 372.061 370.236 372.112L372.122 373.195C372.206 373.245 372.274 373.169 372.274 373.025L372.012 356.921H372.003Z" fill="black"></path>
    <path d="M358.381 351.151C358.364 350.043 357.806 348.834 357.138 348.453C356.469 348.073 355.936 348.648 355.962 349.756C355.987 350.864 356.537 352.073 357.205 352.462C357.873 352.852 358.406 352.268 358.381 351.16V351.151Z" fill="black"></path>
    <path d="M358.426 361.667C358.426 361.252 358.308 354.232 358.308 354.232C358.308 354.088 358.232 353.936 358.147 353.885L356.278 352.802C356.193 352.752 356.117 352.853 356.117 352.997C356.117 352.997 356.261 361.937 356.286 363.646C356.286 363.959 356.413 364.12 356.565 364.213L358.257 365.185C358.443 365.295 358.486 365.169 358.477 364.906L358.426 361.667Z" fill="black"></path>
    <path d="M379.225 366.08L377.364 365.006C377.279 364.955 377.212 365.031 377.212 365.175L377.339 373.067C377.339 373.067 376.873 373.363 376.205 372.974C375.537 372.585 375.342 371.984 375.325 370.901C375.308 369.819 375.215 364.016 375.215 364.016C375.215 363.872 375.139 363.72 375.055 363.669L373.16 362.578C373.075 362.527 373.008 362.604 373.008 362.747L373.126 370.157C373.177 373.363 374.277 374.775 375.782 375.638C377.009 376.349 377.99 375.807 377.99 375.807C377.99 375.807 378.049 376.425 378.066 376.501C378.091 376.585 378.142 376.687 378.201 376.721L379.402 377.406C379.487 377.457 379.555 377.38 379.555 377.237L379.377 366.427C379.377 366.283 379.301 366.131 379.216 366.08H379.225Z" fill="black"></path>
    <path d="M384.317 368.663C383.26 368.054 382.549 368.409 382.549 368.409L382.465 362.954C382.465 362.81 382.389 362.658 382.304 362.607L380.418 361.516C380.333 361.465 380.266 361.541 380.266 361.685L380.528 377.79C380.528 377.934 380.604 378.086 380.689 378.137L382 378.889C382.059 378.923 382.101 378.898 382.135 378.83C382.169 378.762 382.203 378.137 382.203 378.137C382.203 378.137 382.989 379.777 384.453 380.615C386.161 381.604 387.125 380.75 387.041 375.785C386.956 370.82 385.383 369.272 384.326 368.655L384.317 368.663ZM383.734 377.308C383.082 376.902 382.642 376.166 382.642 376.166L382.558 371.065C382.558 371.065 382.981 370.879 383.514 371.108C384.182 371.395 384.833 372.106 384.875 374.728C384.918 377.494 384.639 377.874 383.734 377.308Z" fill="black"></path>
    <path d="M363.702 357.096L362.29 356.284L362.239 353.23C362.239 353.112 362.197 353.036 362.121 352.985L360.2 351.877C360.124 351.835 360.09 351.869 360.09 351.978L360.141 355.133C360.141 355.133 359.185 354.956 359.118 354.956C359.05 354.956 359.008 355.024 359.008 355.133L359.042 357.113C359.042 357.257 359.118 357.409 359.202 357.46L360.184 358.026L360.26 362.788C360.319 366.324 361.841 367.55 362.865 368.143C363.33 368.413 363.888 368.489 363.981 368.489C364.041 368.489 364.066 368.413 364.066 368.312L364.032 366.138C364.032 365.994 363.956 365.842 363.871 365.791C363.787 365.74 363.584 365.681 363.364 365.554C362.67 365.157 362.425 364.488 362.417 363.812C362.408 363.135 362.34 359.287 362.34 359.287L363.753 360.099C363.838 360.149 363.905 360.073 363.905 359.929L363.863 357.451C363.863 357.307 363.787 357.155 363.702 357.104V357.096Z" fill="black"></path>
  </g>
  <g clip-path="url(#clip4_1899_15180)">
    <path d="M132.337 311.319C131.517 310.76 130.882 311.014 130.831 312.655C130.798 313.89 131.178 315.015 132.168 315.692C133.005 316.267 133.597 315.819 133.631 314.516C133.673 313.036 133.183 311.902 132.329 311.327L132.337 311.319ZM130.366 321.748C130.163 322.019 129.952 322.315 129.943 322.814C129.918 323.82 130.671 324.641 131.72 325.36C132.591 325.952 133.775 326.654 133.809 325.3C133.834 324.497 133.259 324.057 132.548 323.49L130.366 321.748ZM135.12 313.298C135.374 314.059 135.636 315.057 135.602 316.216C135.526 319.007 134.172 319.752 132.286 318.466C131.804 318.136 131.373 317.739 131.111 317.434L130.578 318.432L132.041 319.583C134.629 321.629 136.152 322.797 136.059 326.138C135.983 329.031 134.418 329.631 131.813 327.855C129.207 326.079 128.099 324.142 128.15 322.162C128.184 321.029 128.497 320.631 129.047 320.158C128.565 319.473 128.412 318.728 128.429 318.052C128.446 317.502 128.624 317.104 128.903 316.817C129.182 316.521 129.495 316.25 129.876 315.937C129.157 314.837 128.641 313.146 128.691 311.285C128.768 308.392 129.969 307.182 132.261 308.747C132.904 309.187 133.293 309.551 133.631 309.94L136.549 311.928L136.49 314.068L135.103 313.306" fill="#413000"></path>
    <path d="M139.266 311.462C138.411 310.878 137.938 309.711 137.98 308.281C138.022 306.852 138.538 306.403 139.392 306.987C140.247 307.571 140.737 308.696 140.695 310.125C140.653 311.555 140.137 312.054 139.266 311.462ZM136.914 325.257L136.965 323.269L137.735 323.616C137.946 323.709 137.98 323.65 137.988 323.278L138.191 315.885C138.191 315.606 138.157 315.403 138.014 315.226L137.219 314.194L137.438 312.265L140.543 314.38L140.255 324.817C140.247 325.223 140.255 325.283 140.484 325.486L141.245 326.179L141.194 328.167L136.923 325.257" fill="#413000"></path>
    <path d="M147.138 331.231C146.478 331.316 145.522 331.155 144.668 330.572C142.883 329.354 142.24 327.687 142.325 324.845L142.503 318.256C142.503 318.104 142.503 318.002 142.393 317.926L141.344 317.216L141.403 314.974C142.731 315.617 143.281 314.873 143.526 312.242L144.947 313.215L144.846 316.784C144.846 316.962 144.846 317.038 144.955 317.114L147.07 318.552L147.002 321.064L144.769 319.542L144.6 325.556C144.558 327.036 144.752 327.763 145.564 328.313C145.987 328.601 146.427 328.719 146.791 328.736L147.138 331.223" fill="#413000"></path>
    <path d="M125.116 309.507L118.577 293.334C118.205 292.404 117.562 291.964 117.148 292.361L115.659 293.782L117.376 298.037C117.799 298.088 118.281 298.57 118.594 299.365C118.916 300.16 118.983 301.04 118.823 301.649L120.48 305.751C120.912 305.793 121.385 306.284 121.707 307.079C122.155 308.187 122.121 309.464 121.631 309.93C121.14 310.395 120.379 309.879 119.931 308.771C119.592 307.933 119.533 307.003 119.728 306.394L118.18 302.562L117.985 309.727C118.095 309.896 118.205 310.099 118.29 310.327C118.738 311.435 118.704 312.712 118.214 313.186C117.723 313.651 116.962 313.135 116.513 312.027C116.065 310.919 116.099 309.642 116.59 309.168C116.708 309.05 116.852 308.999 116.996 308.999L117.199 301.767C117.055 301.573 116.928 301.336 116.818 301.057C116.48 300.219 116.42 299.28 116.623 298.671L114.923 294.476L110.017 299.162C109.603 299.56 109.578 300.634 109.95 301.564L116.488 317.728C116.86 318.659 117.503 319.098 117.918 318.701L125.048 311.9C125.462 311.503 125.488 310.429 125.116 309.498" fill="#F05133"></path>
  </g>
  <g clip-path="url(#clip5_1899_15180)">
    <path d="M413.604 77.5547L415.363 78.4936L414.729 90.6399C414.56 93.8456 413.392 95.5204 410.965 94.2262C410.051 93.7356 409.349 93.1435 408.867 92.6445L408.986 90.3184C409.502 90.9021 410.144 91.4011 410.787 91.7479C412.284 92.543 412.86 91.6126 412.953 89.8617L413.595 77.5631L413.604 77.5547Z" fill="#253858"></path>
    <path d="M418.648 79.2801C419.342 79.6523 419.798 80.4812 419.748 81.5131C419.697 82.5451 419.172 82.8496 418.479 82.4859C417.785 82.1221 417.328 81.2848 417.379 80.2528C417.43 79.2209 417.954 78.9164 418.648 79.2801ZM417.506 83.9238L419.198 84.8288L418.504 98.117L416.812 97.212L417.506 83.9238Z" fill="#253858"></path>
    <path d="M422.696 100.348L421.047 99.4679L421.74 86.1797L423.39 87.0594L423.271 89.3854C423.931 88.1251 424.972 87.533 426.883 88.7003L426.765 90.9333C424.616 89.4785 423.255 89.6561 423.111 92.4897L422.696 100.348Z" fill="#253858"></path>
    <path d="M434.207 104.036C433.488 105.457 432.262 105.728 430.748 104.924C428.143 103.537 426.984 99.8409 427.187 95.9162C427.381 92.1691 428.929 89.7331 431.67 91.1964C433.099 91.9577 434.165 93.4294 434.655 95.4594L434.774 93.1334L436.466 94.0384L435.772 107.327L434.08 106.422L434.207 104.036ZM431.306 103.047C432.82 103.859 434.224 103.267 434.385 100.306L434.444 99.2488C434.596 96.2884 433.437 94.3345 431.991 93.5648C430.096 92.5582 429.031 93.7255 428.861 96.8043C428.718 100.019 429.572 102.116 431.306 103.047Z" fill="#253858"></path>
    <path d="M404.895 70.1108L397.181 66C397.045 68.5967 398.492 71.5487 400.412 72.5637L401.841 73.325L401.748 75.1689C401.613 77.7657 403.059 80.7176 404.979 81.7326L405.521 71.3711C405.546 70.8551 405.275 70.3138 404.903 70.1108H404.895Z" fill="#2684FF"></path>
    <path d="M400.809 73.2749L393.095 69.1641C392.959 71.7608 394.406 74.7128 396.326 75.7278L397.755 76.489L397.654 78.3584C397.518 80.9551 398.965 83.9071 400.885 84.9221L401.426 74.5267C401.452 74.0446 401.181 73.4694 400.809 73.2664V73.2749Z" fill="url(#paint3_linear_1899_15180)"></path>
    <path d="M396.723 76.4708L389.009 72.3516C388.873 74.9483 390.32 77.9003 392.24 78.9153L393.669 79.6765L393.576 81.5205C393.441 84.1172 394.887 87.0692 396.807 88.0842L397.349 77.7227C397.374 77.2067 397.087 76.6484 396.731 76.4624L396.723 76.4708Z" fill="url(#paint4_linear_1899_15180)"></path>
  </g>
  <path d="M336.262 161.531L354.522 200.854L304.63 229.646L236.463 219.116L218.203 179.792L268.095 151L336.262 161.531Z" fill="#E63224"></path>
  <path d="M218.344 179.711L236.51 218.847V233.89L218.344 194.753V179.711Z" fill="#D72422"></path>
  <path d="M236.516 219.016L304.574 229.064V243.983L236.516 233.935V219.016Z" fill="#B32021"></path>
  <path d="M354.485 200.852L304.562 229.068V243.875L354.485 215.658V200.852Z" fill="#D72422"></path>
  <path fill-rule="evenodd" clip-rule="evenodd" d="M269.577 160.699C269.811 160.555 270.089 160.499 270.361 160.541L324.456 168.941C324.83 168.999 325.152 169.236 325.318 169.576L337.663 194.822C337.937 195.383 337.717 196.061 337.165 196.354L298.326 216.933C298.109 217.048 297.861 217.091 297.618 217.056L247.415 209.792C247.034 209.736 246.705 209.495 246.538 209.148L234.256 183.654C233.998 183.119 234.186 182.476 234.692 182.165L269.577 160.699ZM270.427 162.895L236.795 183.59L248.356 207.588L297.576 214.71L335.09 194.832L323.504 171.136L270.427 162.895Z" fill="white"></path>
  <path fill-rule="evenodd" clip-rule="evenodd" d="M293.5 165.211C294.037 164.9 294.724 165.067 295.057 165.591L319.357 203.731C319.596 204.106 319.599 204.585 319.365 204.963C319.131 205.34 318.702 205.551 318.26 205.505L241.967 197.525C241.469 197.473 241.06 197.106 240.955 196.616C240.851 196.126 241.073 195.624 241.507 195.372L293.5 165.211ZM245.743 195.592L316.115 202.953L293.701 167.771L245.743 195.592Z" fill="white"></path>
  <defs>
    <linearGradient id="paint0_linear_1899_15180" x1="244.659" y1="77.9629" x2="236.516" y2="79.0409" gradientUnits="userSpaceOnUse">
      <stop offset="0.18" stop-color="#0052CC"></stop>
      <stop offset="1" stop-color="#2684FF"></stop>
    </linearGradient>
    <linearGradient id="paint1_linear_1899_15180" x1="530.634" y1="265.246" x2="525.695" y2="256.902" gradientUnits="userSpaceOnUse">
      <stop offset="0.18" stop-color="#0052CC"></stop>
      <stop offset="1" stop-color="#2684FF"></stop>
    </linearGradient>
    <linearGradient id="paint2_linear_1899_15180" x1="-393.512" y1="-281.626" x2="-388.566" y2="-273.279" gradientUnits="userSpaceOnUse">
      <stop offset="0.18" stop-color="#0052CC"></stop>
      <stop offset="1" stop-color="#2684FF"></stop>
    </linearGradient>
    <linearGradient id="paint3_linear_1899_15180" x1="321.216" y1="31.3853" x2="315.845" y2="32.8768" gradientUnits="userSpaceOnUse">
      <stop offset="0.18" stop-color="#0052CC"></stop>
      <stop offset="1" stop-color="#2684FF"></stop>
    </linearGradient>
    <linearGradient id="paint4_linear_1899_15180" x1="315.366" y1="33.6603" x2="309.305" y2="35.1547" gradientUnits="userSpaceOnUse">
      <stop offset="0.18" stop-color="#0052CC"></stop>
      <stop offset="1" stop-color="#2684FF"></stop>
    </linearGradient>
    <clipPath id="clip0_1899_15180">
      <rect width="79.5091" height="60.0547" fill="white" transform="translate(172.375 29.1406)"></rect>
    </clipPath>
    <clipPath id="clip1_1899_15180">
      <rect width="94.3113" height="66.8046" fill="white" transform="translate(478.266 220.719)"></rect>
    </clipPath>
    <clipPath id="clip2_1899_15180">
      <rect width="69.359" height="57.5172" fill="white" transform="translate(20.2969 119.297)"></rect>
    </clipPath>
    <clipPath id="clip3_1899_15180">
      <rect width="64.893" height="58.2193" fill="white" transform="translate(322.148 322.758)"></rect>
    </clipPath>
    <clipPath id="clip4_1899_15180">
      <rect width="37.4454" height="39.0356" fill="white" transform="translate(109.688 292.219)"></rect>
    </clipPath>
    <clipPath id="clip5_1899_15180">
      <rect width="47.4771" height="41.3278" fill="white" transform="translate(389 66)"></rect>
    </clipPath>
  </defs>
</svg>
