<?xml version="1.0" encoding="utf-8"?>
<svg viewBox="149.0973 1869.0853 942.6813 278.312" width="942.6813" height="278.312" xmlns="http://www.w3.org/2000/svg">
  <defs/>
  <path d="m 506.026,345.181 h 8.715 v -55.499 h -8.715 z" style="fill:#1679ff;fill-opacity:1;fill-rule:nonzero;stroke:none" id="path378" transform="matrix(1.3333332538604736, 0, 0, -1.3333332538604736, 0, 2438.5732421875)"/>
  <g id="g380" transform="matrix(1.3333332538604736, 0, 0, -1.3333332538604736, 642.9002302348454, 2028.5360758724128)">
    <path d="m 0,0 2.99,24.251 c 0.082,0.674 0.592,1.164 1.164,1.164 0.571,0 1.081,-0.49 1.163,-1.164 L 8.307,0 C 8.369,-0.491 7.981,-0.93 7.481,-0.93 H 0.816 c -0.499,0 -0.878,0.439 -0.827,0.93 z m -1.755,-11.615 h 0.01 l 0.449,2.993 c 0.092,0.613 0.847,1.093 1.694,1.093 h 7.501 c 0.847,0 1.602,-0.48 1.694,-1.093 l 0.449,-2.993 h 0.041 l 0.928,-6.231 h 8.798 L 10.941,37.653 H -1.816 l -8.869,-55.499 h 8.001 z" style="fill:#1679ff;fill-opacity:1;fill-rule:nonzero;stroke:none" id="path382"/>
  </g>
  <g id="g384" transform="matrix(1.3333332538604736, 0, 0, -1.3333332538604736, 312.9717220680867, 2104.1958003666477)">
    <path d="M 0,0 C 0.755,0 1.367,0.613 1.367,1.369 1.367,2.125 0.755,2.738 0,2.738 -0.755,2.738 -1.368,2.125 -1.368,1.369 -1.368,0.613 -0.755,0 0,0" style="fill:#1679ff;fill-opacity:1;fill-rule:nonzero;stroke:none" id="path386"/>
  </g>
  <g id="g388" transform="matrix(1.3333332538604736, 0, 0, -1.3333332538604736, 334.00891156938087, 1993.204738460095)">
    <path d="m 0,0 c 5.09,0 9.216,4.13 9.216,9.224 0,5.095 -4.126,9.225 -9.216,9.225 -5.09,0 -9.216,-4.13 -9.216,-9.225 C -9.216,4.13 -5.09,0 0,0" style="fill:#1679ff;fill-opacity:1;fill-rule:nonzero;stroke:none" id="path390"/>
  </g>
  <g id="g392" transform="matrix(1.3333332538604736, 0, 0, -1.3333332538604736, 354.97796549530904, 2029.6113931911314)">
    <path d="m 0,0 c 5.09,0 9.216,4.13 9.216,9.224 0,5.095 -4.126,9.224 -9.216,9.224 -5.09,0 -9.216,-4.129 -9.216,-9.224 C -9.216,4.13 -5.09,0 0,0" style="fill:#1679ff;fill-opacity:1;fill-rule:nonzero;stroke:none" id="path394"/>
  </g>
  <g id="g396" transform="matrix(1.3333332538604736, 0, 0, -1.3333332538604736, 271.06132417551635, 2029.5575194964254)">
    <path d="m 0,0 c 5.09,0 9.216,4.13 9.216,9.224 0,5.095 -4.126,9.225 -9.216,9.225 -5.09,0 -9.216,-4.13 -9.216,-9.225 C -9.216,4.13 -5.09,0 0,0" style="fill:#1679ff;fill-opacity:1;fill-rule:nonzero;stroke:none" id="path398"/>
  </g>
  <g id="g400" transform="matrix(1.3333332538604736, 0, 0, -1.3333332538604736, 365.8774602883568, 1994.3216817528955)">
    <path d="M 0,0 C 3.145,0 5.695,2.552 5.695,5.7 5.695,8.848 3.145,11.4 0,11.4 -3.145,11.4 -5.695,8.848 -5.695,5.7 -5.695,2.552 -3.145,0 0,0" style="fill:#1679ff;fill-opacity:1;fill-rule:nonzero;stroke:none" id="path402"/>
  </g>
  <g id="g404" transform="matrix(1.3333332538604736, 0, 0, -1.3333332538604736, 312.98531256206843, 1963.82595603152)">
    <path d="M 0,0 C 3.145,0 5.695,2.552 5.695,5.7 5.695,8.848 3.145,11.4 0,11.4 -3.145,11.4 -5.695,8.848 -5.695,5.7 -5.695,2.552 -3.145,0 0,0" style="fill:#1679ff;fill-opacity:1;fill-rule:nonzero;stroke:none" id="path406"/>
  </g>
  <g id="g408" transform="matrix(1.3333332538604736, 0, 0, -1.3333332538604736, 260.1479744028256, 1994.3216817528955)">
    <path d="M 0,0 C 3.145,0 5.695,2.552 5.695,5.7 5.695,8.848 3.145,11.4 0,11.4 -3.145,11.4 -5.695,8.848 -5.695,5.7 -5.695,2.552 -3.145,0 0,0" style="fill:#1679ff;fill-opacity:1;fill-rule:nonzero;stroke:none" id="path410"/>
  </g>
  <g id="g412" transform="matrix(1.3333332538604736, 0, 0, -1.3333332538604736, 260.10718257582994, 2055.4358138523967)">
    <path d="M 0,0 C 3.145,0 5.695,2.552 5.695,5.7 5.695,8.848 3.145,11.4 0,11.4 -3.145,11.4 -5.695,8.848 -5.695,5.7 -5.695,2.552 -3.145,0 0,0" style="fill:#1679ff;fill-opacity:1;fill-rule:nonzero;stroke:none" id="path414"/>
  </g>
  <g id="g416" transform="matrix(1.3333332538604736, 0, 0, -1.3333332538604736, 312.98531256206843, 2085.9984747911367)">
    <path d="M 0,0 C 3.145,0 5.695,2.552 5.695,5.7 5.695,8.848 3.145,11.4 0,11.4 -3.145,11.4 -5.695,8.848 -5.695,5.7 -5.695,2.552 -3.145,0 0,0" style="fill:#1679ff;fill-opacity:1;fill-rule:nonzero;stroke:none" id="path418"/>
  </g>
  <g id="g420" transform="matrix(1.3333332538604736, 0, 0, -1.3333332538604736, 365.90476334662515, 2055.3943506387222)">
    <path d="M 0,0 C 3.145,0 5.695,2.552 5.695,5.7 5.695,8.848 3.145,11.4 0,11.4 -3.145,11.4 -5.695,8.848 -5.695,5.7 -5.695,2.552 -3.145,0 0,0" style="fill:#1679ff;fill-opacity:1;fill-rule:nonzero;stroke:none" id="path422"/>
  </g>
  <g id="g424" transform="matrix(1.3333332538604736, 0, 0, -1.3333332538604736, 351.20875999080454, 1955.8172895166863)">
    <path d="M 0,0 C 1.939,0 3.511,1.573 3.511,3.514 3.511,5.455 1.939,7.028 0,7.028 -1.939,7.028 -3.511,5.455 -3.511,3.514 -3.511,1.573 -1.939,0 0,0" style="fill:#1679ff;fill-opacity:1;fill-rule:nonzero;stroke:none" id="path426"/>
  </g>
  <g id="g428" transform="matrix(1.3333332538604736, 0, 0, -1.3333332538604736, 274.8170409112936, 1955.8035362622977)">
    <path d="M 0,0 C 1.939,0 3.511,1.573 3.511,3.514 3.511,5.455 1.939,7.028 0,7.028 -1.939,7.028 -3.511,5.455 -3.511,3.514 -3.511,1.573 -1.939,0 0,0" style="fill:#1679ff;fill-opacity:1;fill-rule:nonzero;stroke:none" id="path430"/>
  </g>
  <g id="g432" transform="matrix(1.3333332538604736, 0, 0, -1.3333332538604736, 236.66172905792337, 2021.970321055429)">
    <path d="M 0,0 C 1.939,0 3.511,1.573 3.511,3.514 3.511,5.455 1.939,7.028 0,7.028 -1.939,7.028 -3.511,5.455 -3.511,3.514 -3.511,1.573 -1.939,0 0,0" style="fill:#1679ff;fill-opacity:1;fill-rule:nonzero;stroke:none" id="path434"/>
  </g>
  <g id="g436" transform="matrix(1.3333332538604736, 0, 0, -1.3333332538604736, 274.8031859316507, 2088.1508591029487)">
    <path d="M 0,0 C 1.939,0 3.511,1.573 3.511,3.514 3.511,5.455 1.939,7.028 0,7.028 -1.939,7.028 -3.511,5.455 -3.511,3.514 -3.511,1.573 -1.939,0 0,0" style="fill:#1679ff;fill-opacity:1;fill-rule:nonzero;stroke:none" id="path438"/>
  </g>
  <g id="g440" transform="matrix(1.3333332538604736, 0, 0, -1.3333332538604736, 351.20875999080454, 2088.178202851319)">
    <path d="M 0,0 C 1.939,0 3.511,1.573 3.511,3.514 3.511,5.455 1.939,7.028 0,7.028 -1.939,7.028 -3.511,5.455 -3.511,3.514 -3.511,1.573 -1.939,0 0,0" style="fill:#1679ff;fill-opacity:1;fill-rule:nonzero;stroke:none" id="path442"/>
  </g>
  <g id="g444" transform="matrix(1.3333332538604736, 0, 0, -1.3333332538604736, 389.3637056332591, 2021.970321055429)">
    <path d="M 0,0 C 1.939,0 3.511,1.573 3.511,3.514 3.511,5.455 1.939,7.028 0,7.028 -1.939,7.028 -3.511,5.455 -3.511,3.514 -3.511,1.573 -1.939,0 0,0" style="fill:#1679ff;fill-opacity:1;fill-rule:nonzero;stroke:none" id="path446"/>
  </g>
  <g id="g448" transform="matrix(1.3333332538604736, 0, 0, -1.3333332538604736, 386.61517064083455, 1976.5064565777866)">
    <path d="M 0,0 C 0.755,0 1.367,0.613 1.367,1.369 1.367,2.125 0.755,2.738 0,2.738 -0.756,2.738 -1.367,2.125 -1.367,1.369 -1.367,0.613 -0.756,0 0,0" style="fill:#1679ff;fill-opacity:1;fill-rule:nonzero;stroke:none" id="path450"/>
  </g>
  <g id="g452" transform="matrix(1.3333332538604736, 0, 0, -1.3333332538604736, 312.9854549774245, 1933.99795487972)">
    <path d="M 0,0 C 0.755,0 1.368,0.613 1.368,1.369 1.368,2.125 0.755,2.738 0,2.738 -0.755,2.738 -1.368,2.125 -1.368,1.369 -1.368,0.613 -0.755,0 0,0" style="fill:#1679ff;fill-opacity:1;fill-rule:nonzero;stroke:none" id="path454"/>
  </g>
  <g id="g456" transform="matrix(1.3333332538604736, 0, 0, -1.3333332538604736, 239.41038612065313, 1976.5335561855463)">
    <path d="M 0,0 C 0.755,0 1.368,0.613 1.368,1.369 1.368,2.125 0.755,2.738 0,2.738 -0.755,2.738 -1.368,2.125 -1.368,1.369 -1.368,0.613 -0.755,0 0,0" style="fill:#1679ff;fill-opacity:1;fill-rule:nonzero;stroke:none" id="path458"/>
  </g>
  <g id="g460" transform="matrix(1.3333332538604736, 0, 0, -1.3333332538604736, 239.36945187830133, 2061.65993457516)">
    <path d="M 0,0 C 0.755,0 1.368,0.613 1.368,1.369 1.368,2.125 0.755,2.738 0,2.738 -0.755,2.738 -1.368,2.125 -1.368,1.369 -1.368,0.613 -0.755,0 0,0" style="fill:#1679ff;fill-opacity:1;fill-rule:nonzero;stroke:none" id="path462"/>
  </g>
  <g id="g464" transform="matrix(1.3333332538604736, 0, 0, -1.3333332538604736, 386.6558607425759, 2061.5919414151504)">
    <path d="M 0,0 C 0.756,0 1.367,0.613 1.367,1.369 1.367,2.125 0.756,2.738 0,2.738 -0.756,2.738 -1.367,2.125 -1.367,1.369 -1.367,0.613 -0.756,0 0,0" style="fill:#1679ff;fill-opacity:1;fill-rule:nonzero;stroke:none" id="path466"/>
  </g>
  <g id="g468" transform="matrix(1.3333332538604736, 0, 0, -1.3333332538604736, 337.7779746585293, 2041.9926180390898)">
    <path d="m 0,0 c -4.123,1.308 -8.44,-0.358 -10.604,-3.841 l -0.102,-0.163 c -2.122,-3.606 -6.327,-5.516 -10.491,-4.219 -2.347,0.735 -4.164,2.319 -5.276,4.31 -0.184,0.583 -0.306,1.186 -0.337,1.819 -0.183,3.943 2.868,7.283 6.797,7.467 h 0.541 c 0.122,0 0.245,-0.03 0.367,-0.03 7.287,-0.297 13.431,5.373 13.727,12.656 0.296,7.294 -5.369,13.443 -12.645,13.739 -0.428,0.021 -0.857,0.011 -1.276,-0.01 -0.245,-0.01 -0.489,-0.01 -0.734,0 -3.94,0.164 -6.726,3.239 -6.563,7.182 0.041,0.939 0.174,1.859 0.541,2.676 l 0.102,0.255 c 0.205,0.491 0.296,0.685 0.46,1.195 1.51,4.904 -1.174,10.073 -6.052,11.595 -4.787,1.491 -9.981,-1.124 -11.543,-6.027 -1.51,-4.74 1.031,-9.848 5.736,-11.513 0.775,-0.276 1.235,-0.347 1.939,-0.449 l 0.398,-0.051 c 3.745,-0.358 6.685,-3.412 6.531,-7.222 -0.061,-1.39 -0.51,-2.656 -1.234,-3.729 -1.215,-1.9 -1.939,-4.148 -2.041,-6.558 -0.113,-2.809 0.642,-5.465 2.041,-7.661 0.734,-1.063 1.173,-2.35 1.245,-3.729 0.173,-3.81 -2.368,-6.854 -6.124,-7.232 h -0.071 c -0.541,-0.02 -1.174,-0.112 -1.684,-0.225 -5.093,-1.165 -8.113,-6.139 -6.96,-11.104 1.163,-5.005 6.144,-7.978 10.94,-6.906 2.572,0.573 4.603,2.085 5.868,4.128 2.123,3.626 6.583,5.383 10.757,4.076 2.266,-0.705 3.888,-2.085 5.011,-3.984 l 0.123,-0.205 c 0.979,-1.583 2.826,-3.187 5.041,-3.851 5.01,-1.481 9.94,1.226 11.512,5.996 C 7.573,-6.65 4.664,-1.481 -0.01,0 Z" style="fill:#1679ff;fill-opacity:1;fill-rule:nonzero;stroke:none" id="path470"/>
  </g>
  <g id="g472" transform="matrix(1.3333332538604736, 0, 0, -1.3333332538604736, 598.6082406873538, 2018.238469064323)">
    <path d="M 0,0 C 2.333,0 4.225,1.893 4.225,4.229 4.225,6.565 2.333,8.458 0,8.458 -2.334,8.458 -4.225,6.565 -4.225,4.229 -4.225,1.893 -2.334,0 0,0" style="fill:#1679ff;fill-opacity:1;fill-rule:nonzero;stroke:none" id="path474"/>
  </g>
  <path d="m 348.595,322.749 h 10.043 v 16.906 h -10.043 z m -5.358,22.422 h 20.747 v -27.683 h -20.747 z m -17.625,-52.496 h 28.331 v 5.516 h -28.331 z m 0,10.032 h 28.331 v 5.261 h -28.331 z m 12.043,10.521 c -1.787,1.502 -4.236,3.504 -7.359,6.017 -0.887,0.838 -1.643,1.42 -2.235,1.757 -1.337,-2.677 -4.011,-5.261 -8.031,-7.764 h 17.625 z m 0,0 h 22.309 v -27.816 h -6.021 v 2.758 h -28.331 v -2.758 h -5.797 v 27.561 c -1.194,-0.501 -2.378,-1.175 -3.572,-2.002 -1.041,1.838 -2.153,3.585 -3.347,5.261 6.246,2.502 10.113,5.516 11.603,9.019 h -11.154 v 5.016 h 12.267 c 0.296,1.665 0.449,7.386 0.449,9.388 h -5.358 c -1.041,-1.675 -2.449,-3.422 -4.235,-5.261 -0.296,0.337 -0.674,0.756 -1.113,1.256 -0.296,0.501 -1.112,1.42 -2.449,2.759 3.266,3.166 5.572,6.925 6.92,11.277 l 5.357,-0.5 c -0.449,-1.676 -1.041,-3.177 -1.786,-4.516 h 16.064 v -5.015 h -7.807 c 0,-0.674 -0.082,-1.594 -0.225,-2.758 0,-1.338 -0.071,-6.129 -0.224,-6.63 h 9.817 v -5.016 h -10.481 c 1.633,-1.174 4.164,-2.921 7.583,-5.26 1.184,-0.838 2.082,-1.42 2.674,-1.758 l -3.123,-5.015 z" style="fill:#1679ff;fill-opacity:1;fill-rule:nonzero;stroke:none" id="path476" transform="matrix(1.3333332538604736, 0, 0, -1.3333332538604736, 0, 2438.5732421875)"/>
  <g id="g478" transform="matrix(1.3333332538604736, 0, 0, -1.3333332538604736, 564.4397043124991, 2005.8035332820655)">
    <path d="M 0,0 -4.011,3.003 C -1.48,6.17 0.224,8.519 1.122,10.021 L 5.133,7.263 C 4.541,6.262 3.419,4.668 1.786,2.503 1.041,1.328 0.449,0.501 0,0 m -16.063,-3.299 h 5.133 v 16.375 h -5.133 z m -6.92,-28.827 h 18.962 v 5.015 h -18.962 z m 0,9.275 h 18.962 v 5.261 h -18.962 z m -5.572,-16.538 v 26.814 H 1.786 v -26.814 h -5.797 v 2.502 h -18.961 v -2.502 h -5.573 z M -26.769,0 c -1.194,1.839 -2.899,4.26 -5.134,7.263 l 3.797,2.758 c 0.592,-0.674 1.48,-1.839 2.674,-3.504 1.184,-1.501 2.082,-2.676 2.673,-3.504 l -4.01,-3.003 z m -4.909,13.075 v 4.761 h 9.368 c -1.785,3.003 -3.051,5.015 -3.796,6.016 l 5.358,1.257 c 0.449,-0.674 1.041,-1.594 1.786,-2.758 1.337,-2.002 2.307,-3.504 2.899,-4.515 h 5.358 c 1.632,2.339 3.122,4.76 4.459,7.263 l 5.573,-1.257 c -0.296,-0.337 -0.674,-0.919 -1.113,-1.757 -0.296,-0.5 -1.194,-1.92 -2.674,-4.26 h 9.818 v -4.76 H -6.021 V -3.31 h 12.94 v -4.76 h -40.598 v 4.76 h 12.493 v 16.375 h -10.482 z m -7.358,-2.502 c -0.745,1.164 -2.011,3.085 -3.797,5.761 -1.193,1.839 -2.081,3.259 -2.673,4.26 l 4.459,3.003 c 1.929,-2.339 4.317,-5.516 7.134,-9.521 l -5.133,-3.503 z m -1.337,-49.207 -3.572,5.516 c 1.041,1.002 1.561,2.585 1.561,4.761 v 22.299 h -4.684 v 6.262 h 10.481 v -27.06 c 0.143,0.164 0.449,0.501 0.888,1.001 1.786,1.839 3.051,3.259 3.796,4.26 0.296,-1.675 0.674,-4.015 1.113,-7.017 -4.317,-3.841 -7.511,-7.182 -9.593,-10.022 z" style="fill:#1679ff;fill-opacity:1;fill-rule:nonzero;stroke:none" id="path480"/>
  </g>
  <g id="g482" transform="matrix(1.3333332538604736, 0, 0, -1.3333332538604736, 736.9734261250416, 2051.5792466994535)">
    <path d="m 0,0 c -0.152,0.185 -0.227,0.408 -0.227,0.673 v 6.729 c 0,0.369 0.108,0.765 0.325,1.187 l 21.898,38.157 c 0.087,0.106 0.108,0.211 0.065,0.317 -0.043,0.105 -0.13,0.158 -0.26,0.158 H 0.552 c -0.217,0 -0.401,0.092 -0.552,0.278 -0.152,0.184 -0.227,0.408 -0.227,0.672 v 6.017 c 0,0.263 0.075,0.487 0.227,0.672 0.151,0.185 0.335,0.278 0.552,0.278 h 29.243 c 0.215,0 0.399,-0.093 0.551,-0.278 0.151,-0.185 0.228,-0.409 0.228,-0.672 v -6.729 c 0,-0.37 -0.109,-0.766 -0.325,-1.188 L 8.35,8.114 C 8.263,8.008 8.241,7.903 8.285,7.798 8.328,7.691 8.415,7.64 8.545,7.64 h 21.25 c 0.215,0 0.399,-0.093 0.551,-0.278 0.151,-0.185 0.228,-0.409 0.228,-0.673 V 0.673 C 30.574,0.408 30.497,0.185 30.346,0 30.194,-0.186 30.01,-0.277 29.795,-0.277 H 0.552 C 0.335,-0.277 0.151,-0.186 0,0" style="fill:#1679ff;fill-opacity:1;fill-rule:nonzero;stroke:none" id="path484"/>
  </g>
  <g id="g486" transform="matrix(1.3333332538604736, 0, 0, -1.3333332538604736, 804.0001148382726, 1990.2982038026094)">
    <path d="M 0,0 C -0.745,1.165 -2.01,3.085 -3.796,5.761 -4.99,7.6 -5.878,9.02 -6.47,10.021 l 4.46,3.003 C -0.081,10.685 2.306,7.508 5.123,3.504 L -0.01,0 Z m -1.337,-49.207 -3.572,5.517 c 1.041,1.001 1.562,2.584 1.562,4.76 v 22.3 h -4.685 v 6.262 H 2.449 v -27.06 c 0.143,0.163 0.449,0.5 0.888,1.001 1.786,1.839 3.052,3.258 3.797,4.259 0.296,-1.675 0.673,-4.014 1.112,-7.017 -4.317,-3.841 -7.511,-7.182 -9.593,-10.022 z M 43.551,-15.29 H 27.865 V -50.508 H 21.448 V -15.29 H 5.502 v 6.762 H 21.448 V 13.87 h 6.417 V -8.528 h 15.686 z" style="fill:#1679ff;fill-opacity:1;fill-rule:nonzero;stroke:none" id="path488"/>
  </g>
  <g id="g490" transform="matrix(1.3333332538604736, 0, 0, -1.3333332538604736, 945.3891038066649, 1973.205919665139)">
    <path d="m 0,0 v -55.376 c 0,-3.836 -0.77,-5.65 -2.888,-6.696 -2.182,-1.046 -5.584,-1.255 -11.039,-1.255 -0.257,1.743 -1.22,4.603 -1.99,6.416 3.787,-0.139 7.51,-0.139 8.537,-0.07 1.155,0 1.604,0.349 1.604,1.605 l 0,55.376 z m -12.259,-44.775 h -5.712 v 38.011 h 5.712 z m -17.842,31.035 c -1.797,2.72 -5.712,6.975 -8.985,9.834 l 4.043,3.488 c 3.273,-2.72 7.252,-6.626 9.178,-9.346 z m -10.076,-9.764 c 0.641,-5.858 1.668,-11.089 2.824,-15.692 3.016,4.394 5.583,9.276 7.573,14.577 l 5.584,-1.883 c -2.888,-7.324 -6.611,-14.089 -11.168,-19.808 2.182,-6.346 4.749,-10.182 7.125,-10.182 1.475,0 2.182,3.138 2.567,11.228 1.284,-1.464 3.466,-2.859 4.942,-3.487 -0.963,-11.228 -3.017,-14.228 -7.959,-14.228 -4.493,0 -8.151,4.325 -11.168,11.369 -3.722,-3.976 -7.83,-7.393 -12.194,-10.252 -0.77,1.325 -2.889,3.835 -4.108,5.091 5.199,2.998 9.949,6.904 14.12,11.647 -1.797,5.928 -3.145,13.112 -4.108,20.853 l -9.499,-1.185 -0.642,6.137 9.499,1.186 c -0.577,6.068 -0.898,12.414 -0.962,18.761 h 6.097 c -0.064,-6.277 0.257,-12.275 0.771,-17.994 l 19.575,2.371 0.578,-6.137 z" style="fill:#1679ff;fill-opacity:1;fill-rule:nonzero;stroke:none" id="path492"/>
  </g>
  <path d="m 725.752,290.043 h -7.087 v 7.087 h 7.087 z" style="fill:#1679ff;fill-opacity:1;fill-rule:nonzero;stroke:none" id="path494" transform="matrix(1.3333332538604736, 0, 0, -1.3333332538604736, 0, 2438.5732421875)"/>
  <path d="M 818.834,218.382 H 111.823 v 208.734 h 707.011 z" style="fill:none;stroke:#bcbcbc;stroke-width:1;stroke-linecap:butt;stroke-linejoin:miter;stroke-miterlimit:10;stroke-dasharray:none;stroke-opacity:1" id="path496" transform="matrix(1.3333332538604736, 0, 0, -1.3333332538604736, 0, 2438.5732421875)"/>
</svg>